<?xml version="1.0" encoding="utf-8"?>
<!-- Generator: Adobe Illustrator 19.0.0, SVG Export Plug-In . SVG Version: 6.00 Build 0)  -->
<svg version="1.1" id="Layer_1" xmlns="http://www.w3.org/2000/svg" xmlns:xlink="http://www.w3.org/1999/xlink" x="0px" y="0px"
	 viewBox="-568 289.9 61.7 51.1" style="enable-background:new -568 289.9 61.7 51.1;" xml:space="preserve">
<style type="text/css">
	.st0{fill:none;}
	.st1{fill:#FFFFFF;}
</style>
<title>Oakland Athletics cap logo</title>
<path class="st0" d="M-539.5,316.5l-2.5-7.7l-2.6,7.7H-539.5z"/>
<path class="st0" d="M-538,317.6l-4-12.1l-4.1,12.1H-538z M-539.5,316.5h-5.2l2.6-7.7C-542.1,308.8-539.5,316.5-539.5,316.5z"/>
<path class="st0" d="M-518.4,325.5c-0.4,0-0.8,0.1-1,0.4c-3.1,3.4-4.7,3.9-5.4,3.9c-0.6,0-1.3-0.3-2.1-2.6l-10-30.2
	c-1.2-3.5-3.3-5.8-6.3-6.8c-0.9-0.2-1.7-0.3-2.6-0.3c-4.7,0-8.4,3.5-9.7,9.3c-0.1,0.5,0.1,1,0.6,1.2s1,0.1,1.3-0.4
	c0.9-1.3,2.6-2.8,4.3-2.8c0.5,0,1.1,0.1,1.6,0.4c1.7,1,1.8,1.8,0.9,4.5l-0.2,0.7c-1-0.6-2.2-1-3.5-1c-2.7,0-6,1.8-6.6,6.9
	c0,0.4,0.2,0.9,0.6,1.1c0.4,0.2,0.9,0.1,1.2-0.2c0.3-0.3,1.2-0.6,2.3-0.6s2.1,0.4,2.5,1c0.6,0.8,0.3,2,0,2.9l-5.8,16.9
	c-6,0.3-10.4,3.9-11.8,9.6c-0.1,0.5,0.1,1,0.6,1.2c0.5,0.2,1,0,1.3-0.4c0.6-1,4.4-3,9.1-3c3.7,0,7.2,1.1,10.3,3.4
	c0.5,0.3,1.1,0.2,1.4-0.2l5.9-7.2c0.3-0.4,0.3-1-0.1-1.4c-0.5-0.5-1.7-0.7-2.6-0.7c-0.9,0-2.6,0.2-4.2,1.4c-1-0.7-2.1-1.3-3.3-1.7
	l2.5-7.4h9.9l3.8,11.3c1.3,3.8,3.6,6.3,6,6.3c0.9,0,2.3-0.4,3.4-2.1c0,0,6.3-9.5,7.1-10.6c0.6-0.9,0.4-1.5,0.2-1.9
	C-517,325.8-517.8,325.5-518.4,325.5z M-517.7,327.7c-0.8,1.1-7.1,10.6-7.1,10.6c-2.3,3.6-6,0.9-7.6-3.9l-4-12h-11.4l-3.1,9.1
	c1.8,0.5,3.4,1.4,4.7,2.4c2.4-2.3,5.6-1.7,6-1.3l-5.8,7.2c-9.3-6.7-19.5-2.4-20.9-0.1c1.5-6.3,6.6-8.8,11.5-8.8l6-17.6
	c2-5.9-4.7-6-6.5-4.4c0.7-6.7,6.7-7.3,9.5-4.3l0.7-2.1c0.9-2.8,0.9-4.3-1.4-5.7c-2.7-1.6-5.7,0.3-7.3,2.6c1.7-7.2,6.5-9.3,11-8.1
	c2.9,0.9,4.6,3.3,5.6,6.1l10,30.2c1.1,3.2,3.1,5.8,9.2-0.9C-518.5,326.5-517,326.6-517.7,327.7z"/>
<path class="st1" d="M-518.7,326.6c-6.2,6.7-8.1,4.1-9.2,0.9l-10-30.2c-0.9-2.8-2.6-5.2-5.6-6.1c-4.5-1.2-9.3,0.9-11,8.1
	c1.6-2.3,4.6-4.3,7.3-2.6c2.3,1.4,2.3,2.9,1.4,5.7l-0.7,2.1c-2.8-3-8.8-2.4-9.5,4.3c1.8-1.7,8.5-1.5,6.5,4.4l-6,17.6
	c-5,0-10,2.6-11.5,8.8c1.4-2.2,11.6-6.6,20.9,0.1l5.9-7.2c-0.4-0.4-3.6-1.1-6,1.3c-1.3-1.1-2.9-1.9-4.7-2.4l3.1-9.1h11.4l4,12
	c1.6,4.8,5.2,7.5,7.6,3.9c0,0,6.3-9.5,7.1-10.6C-517,326.6-518.5,326.5-518.7,326.6z M-542,305.5l4,12.1h-8.1L-542,305.5z"/>
<path class="st0" d="M-527.7,309.5l3-3.9v-4.8h-5.7v5.8h0.8l-1.1,2.9H-527.7z M-529.4,301.8h3.6v3.4l-2.5,3.2h-1l1.1-2.9h-1.2
	C-529.4,305.5-529.4,301.8-529.4,301.8z"/>
<path class="st1" d="M-529.3,308.4h1.1l2.4-3.2v-3.4h-3.6v3.7h1.2L-529.3,308.4z"/>
<path class="st0" d="M-506.6,314c-0.9-2.6-3.7-4.4-5.8-4.8c-1.2-0.2-3.5-0.7-3.8-1.4c0,0-0.1-0.2,0-0.6c0.1-0.2,0.6-0.5,1.5-0.5
	c1,0,2.4,0.4,3.1,1.4l0.7,1.1l3.8-3.9l-0.5-0.7c-1.5-2.1-4.2-3.4-7.1-3.4c-2.6,0-4.9,1.1-6.2,3c-1.5,2.1-1.9,4-1.3,5.8
	c1,2.7,4.3,4.1,7,4.7c1.6,0.4,2.5,1,2.6,1.3c0,0,0.1,0.2-0.1,0.5c-0.5,0.7-3.7,0.3-6.3-2.1l-1-0.7l-3.2,4.3l0.5,0.6
	c1.4,1.7,5.1,4,8.7,4c2.4,0,4.5-1,6-2.9C-506,317.5-506.1,315.4-506.6,314z M-508.7,319.1c-4.3,5.3-11.3,0.9-13.1-1.1l2-2.7
	c2.9,2.7,6.8,3.4,7.9,1.9c1.2-1.8-1.2-2.9-3.1-3.4c-4.6-1.2-8.7-3.9-5.1-8.9c2.6-3.7,9-3.2,11.6,0.5l-2.3,2.3
	c-1.5-2.3-5.8-2.4-6.4-0.6c-0.7,2.1,1.7,2.7,4.6,3.3C-509.7,310.8-505,314.7-508.7,319.1z"/>
<path class="st1" d="M-512.6,310.2c-2.9-0.6-5.3-1.2-4.6-3.3c0.6-1.8,4.9-1.6,6.4,0.6l2.3-2.3c-2.6-3.6-9-4.1-11.6-0.5
	c-3.6,5,0.5,7.7,5.1,8.9c1.9,0.5,4.3,1.6,3.1,3.4c-1,1.6-4.9,0.8-7.9-1.9l-2,2.7c1.8,2.1,8.8,6.4,13.1,1.1
	C-505,314.7-509.7,310.8-512.6,310.2z"/>
</svg>
