<?xml version="1.0" encoding="utf-8"?>
<!-- Generator: Adobe Illustrator 19.0.0, SVG Export Plug-In . SVG Version: 6.00 Build 0)  -->
<svg version="1.1" id="Layer_1" xmlns="http://www.w3.org/2000/svg" xmlns:xlink="http://www.w3.org/1999/xlink" x="0px" y="0px"
	 viewBox="-533 232.1 132.3 165.9" style="enable-background:new -533 232.1 132.3 165.9;" xml:space="preserve">
<style type="text/css">
	.st0{fill:none;}
	.st1{fill:#FFFFFF;}
</style>
<path class="st0" d="M-518,288.1c0,9.3,5.4,16.5,13.6,18.2v-36C-512.5,272.7-518,279.9-518,288.1z M-422.1,338
	c0-5.6-3.1-9.9-9.2-12.8c-6.1-2.9-13.1-3.5-16-3.5v9.8c0,0.4,0.1,0.8,0.2,1.2l1.6,3.6c0.3,0.7,0.3,1.5-0.2,2.1c-0.4,0.6-1.1,1-1.9,1
	h-14.6c-0.7,0-1.4-0.4-1.9-1c-0.4-0.6-0.5-1.4-0.2-2.1l1.5-3.6c0.1-0.3,0.2-0.7,0.2-1.1v-9.9h-25.5v29.4c11.3,3.2,22.6,4.9,32.6,4.9
	C-434.9,355.9-422.1,349.1-422.1,338z"/>
<g>
	<path class="st1" d="M-401.4,383.5l-7.7-8.3c-0.5-0.6-1.3-0.9-2.1-0.9c-0.8,0-1.5,0.3-2,0.8c-6.1,6.1-13,6.6-14.9,6.6h-55.8
		c-2.5,0-4.1-1.1-4.1-3.1v-12c8,2.1,14.5,3.4,21.6,4.1c3.9,0.4,7.7,0.6,11.4,0.6c13.8,0,25.5-2.8,34-8.1c9.5-6,14.5-15.1,14.5-26.4
		c0-7.4-4.2-15-11.6-20.7c-7.7-6-18-9.5-29.1-9.8v-8.8h0.1c6.4,0,10,1.5,10.1,1.5h0.1c0,0,0.7,0.2,1,0.2c0.6,0,1.2-0.2,1.6-0.6
		c0.8-0.8,0.8-2.2,0.8-3v-8.3c-0.1-1.4-1.2-2.1-2.2-2.1h-38.2c-1,0-2.1,0.7-2.2,2.1v8.3c0,0.8,0,2.2,0.8,3c0.4,0.4,1,0.6,1.6,0.6
		c0.3,0,1-0.2,1-0.2h0.1c0,0,3.7-1.5,10.1-1.5h0.1v8.7h-25.7v-36.6h1.3c15.9,0,39.6,2.3,58.3,8.9c0.3,0.1,0.6,0.2,0.9,0.2
		c1,0,1.9-0.5,2.4-1.3l1.2-2c1.6-2.6,3.5-5.8,6.1-10.3c0.5-0.9,0.5-1.8,0.1-2.6c-0.5-0.8-1.4-1.3-2.5-1.3c-0.3,0-0.7,0-1,0.1
		c-3.9,1-5.9,1.4-7.7,1.4c-1.8,0-3.3-0.4-5.9-1.1c-0.9-0.2-1.8-0.5-2.9-0.8c-7.6-1.9-27.6-6.4-48.5-6.4h-1.7v-4.7
		c0-2.9,2.4-5.3,5.3-5.3h1.5c1.6,0,2.8-1.3,2.8-2.8v-6.7c0-1.6-1.3-2.8-2.8-2.8h-30c-1.5,0-2.8,1.3-2.8,2.8v6.7
		c0,1.6,1.3,2.8,2.8,2.8h1.5c2.9,0,5.3,2.4,5.3,5.3v5.2c-16.3,2.9-28.6,17.3-28.6,33.9s12,30.3,28.6,33v23.5
		c-3.7-1.6-7.3-3.2-10.6-4.9c-1.6-0.9-3-1.6-4.1-2.4c-0.4-0.3-0.9-0.4-1.4-0.4h-0.2c-0.8,0-1.5,0.3-2.1,0.9l-1.5,1.7
		c-1.1,1.2-2.3,2.6-3.7,4.2c-1.2,1.4-2.6,2.9-4.2,4.6c-0.5,0.6-0.8,1.2-0.7,1.9c0,0.6,0.2,1.3,0.7,1.7c0.6,0.6,1.4,1,2.4,1h0.3
		c2.3-0.2,4-0.3,5.4-0.3c3.2,0.2,4.6,0.9,8,2.6c0.8,0.4,1.7,0.8,2.7,1.3c2,1,5.2,2.5,9.2,4.2v17.1c0,3-4.7,3.3-6.7,3.3h-1.3
		c-1,0.2-1.6,1.2-1.6,2.2v11c0,1.6,1.3,2.8,2.8,2.8h83.1c10.8,0,19.5-3.5,26.6-10.6C-400.5,386.3-400.4,384.6-401.4,383.5z
		 M-488.1,321.7h25.5v9.9c0,0.4-0.1,0.7-0.2,1.1l-1.5,3.6c-0.3,0.7-0.2,1.5,0.2,2.1c0.4,0.6,1.1,1,1.9,1h14.7c0.8,0,1.5-0.4,1.9-1
		c0.4-0.6,0.5-1.4,0.2-2.1l-1.6-3.6c-0.2-0.4-0.2-0.8-0.2-1.2v-9.8c2.9,0.1,9.9,0.6,16,3.5c6.1,2.9,9.2,7.2,9.2,12.8
		c0,11-12.8,17.9-33.4,17.9c-10,0-21.3-1.7-32.6-4.9L-488.1,321.7L-488.1,321.7z M-504.4,306.3c-8.2-1.7-13.6-8.9-13.6-18.2
		c0-8.2,5.6-15.3,13.6-17.7V306.3z"/>
</g>
</svg>
