<?xml version="1.0" encoding="utf-8"?>
<!-- Generator: Adobe Illustrator 19.0.0, SVG Export Plug-In . SVG Version: 6.00 Build 0)  -->
<svg version="1.1" id="Layer_1" xmlns="http://www.w3.org/2000/svg" xmlns:xlink="http://www.w3.org/1999/xlink" x="0px" y="0px"
	 viewBox="-521 245.9 156.4 138.1" style="enable-background:new -521 245.9 156.4 138.1;" xml:space="preserve">
<style type="text/css">
	.st0{fill:#FFFFFF;}
</style>
<g>
	<title>Tampa Bay Rays hat dark logo</title>
	<path class="st0" d="M-454.1,381h49.9c20.8,0,32.9-9.2,32.9-28.1c0-24.9-27.9-24.2-27.9-24.2v0c0,0,21.6-5.6,21.6-25.1
		c0-15.6-10.9-22-32.3-22c-0.1,0-0.2,0-0.2,0h-44v4.6c0.9,0.2,15.8,2.6,15.8,2.6v85h0c-0.4,0.1-14.9,2.6-15.8,2.8L-454.1,381
		L-454.1,381z M-394.5,307.8c0,0.3,0,0.7,0,1C-395.2,327-415,329-415,329v3c2.1,0.2,26.7,2.5,26.7,21.6c0,0.3,0,0.7,0,1
		c-0.4,10.3-7.1,20.6-23.1,20.6h-0.5c-4.8,0-8.6,0-9.3,0h0v-88.2l0.5-0.1c1.3-0.1,3.7-0.1,4.8-0.1
		C-415.9,286.7-394.5,285.5-394.5,307.8"/>
	<path class="st0" d="M-494.2,339.4v4.5h47.4v-4.5c-0.9-0.2-15.1-2.8-15.1-2.8v-82.4h22.9l0,0l0.1,0c8.2,3.3,11.2,17.6,11.7,20.1
		l2.5-0.1l0.7,0l0.3,0l-3.3-28.3v0l-87,0l-3,25.2l3.5,0.2c0,0,0-0.1,0-0.1c0.5-2.7,3.3-13.8,11.4-17l0.1-0.1h22.7v82.4
		C-479.2,336.7-493.1,339.3-494.2,339.4"/>
</g>
</svg>
