<?xml version="1.0" encoding="utf-8"?>
<!-- Generator: Adobe Illustrator 19.0.0, SVG Export Plug-In . SVG Version: 6.00 Build 0)  -->
<svg version="1.1" id="Layer_1" xmlns="http://www.w3.org/2000/svg" xmlns:xlink="http://www.w3.org/1999/xlink" x="0px" y="0px"
	 viewBox="-526 246.3 145.8 136.7" style="enable-background:new -526 246.3 145.8 136.7;" xml:space="preserve">
<style type="text/css">
	.st0{fill:#FFFFFF;}
</style>
<title>Kansas City Royals hat dark logo</title>
<g>
	<path class="st0" d="M-507.2,264c0-9.6-5.9-12.7-11.1-12.7l-1.7-0.1v-5h34.2l0,5.1c-4.9,0.4-9.9,3.7-9.9,12.6v30l2.4-1.5
		c4.9-7.7,17.9-28.1,20.5-34c3.3-7.2-1.8-7.2-6.6-7.2v-5h30.3v5h-2.1c-3.3,0-7.4,0-12.8,7.4c-7,9.5-20.8,32.6-20.8,32.6
		c21.2,1.8,29.1,34,34.6,38.3c-3.1-23,12.3-51.7,34.8-50.6c2.5,0.1,5.6-0.2,12.8,2c7.2,2.2,7.9-1.7,8.8-6.1h5.4v37.9h-4.7
		c-0.4-6.6-3.3-28.3-22.3-28.9c-19.3-0.6-22.9,24.1-23.2,41c-1,62.4,38.3,60.5,45.5,40.3c1.1-2.9,0.6-3.7-0.6-4.4
		c-8.6-4.6,1.4-16.9,6.9-6.1c2.5,4.9-2,28.3-25.5,28.3c-36.5,0-47.2-56.5-60.8-74.9c-10.6-14.3-19.2-7.9-22.5-4.4l-0.1,9.8l0.1,17.5
		c0,9.6,5.8,12.7,11.1,12.7l1.7,0.1v5H-520v-5l1.7-0.1c5.2,0.1,11.1-3,11.1-12.7L-507.2,264"/>
</g>
</svg>
