<?xml version="1.0" encoding="utf-8"?>
<!-- Generator: Adobe Illustrator 19.0.0, SVG Export Plug-In . SVG Version: 6.00 Build 0)  -->
<svg version="1.1" id="Layer_1" xmlns="http://www.w3.org/2000/svg" xmlns:xlink="http://www.w3.org/1999/xlink" x="0px" y="0px"
	 viewBox="-520 229.3 157.3 171.7" style="enable-background:new -520 229.3 157.3 171.7;" xml:space="preserve">
<style type="text/css">
	.st0{fill:#FFFFFF;}
</style>
<path class="st0" d="M-378,244.4c-1.3-0.9-2.1-1.4-3.8-2.5l-0.9-0.6c-3.7-2.3-7.7-3.5-12.1-3.5c-2.8,0-5.8,0.5-8.9,1.6
	c-1.9-2.1-4.3-3.9-7.1-5.3l-0.9-0.5c-0.5-0.3-0.9-0.5-1.7-0.9c-3.5-1.7-7.5-2.6-11.7-2.6c-5.2,0-10.4,1.4-15,4.1
	c-0.2,0.1-0.3,0.2-0.5,0.3c-1.7-1.4-3.6-2.5-5.8-3.3c-0.6-0.2-1.1-0.4-1.5-0.6c-2.4-0.9-5-1.3-7.7-1.3c-6.5,0-13.3,2.4-19.6,7
	c-10.1,7.3-17.4,13-25.8,20c-8.5,6.9-14.7,13.1-17.5,20.9c-2.6,7.3-2,15,2.1,25.9c3.9,10.5,12,31.4,16.1,42.1
	c0.5,1.4,1.1,2.8,1.6,4.4c2,5.4,4.4,11.9,8,18.5c0.1,0.2,0.2,0.4,0.4,0.6c1.1,2,2.3,3.9,3.6,5.8c0.1,0.2,0.3,0.4,0.4,0.6
	c0,0,0.1,0.1,0.1,0.1c0.2,0.3,0.4,0.5,0.6,0.8c2.3,3.1,5,6.1,8.1,8.9l0.5,0.4l2.5,2.2l0.1,0c11,8.8,24.6,13.6,39.1,13.6
	c22,0,40.5-9.4,55.4-41c14.2-30,17.1-41,17.1-59v-21.7C-362.7,258.8-368.1,251.2-378,244.4z M-369.2,301c0,17.8-3.8,28.3-9.1,39.6
	c-1.1-15.2-8.4-28.7-19.5-37.9c0,0,0.2-39.5,0.2-42.2s-2-4.6-5.1-3.4c-0.5,0.2-1.3,0.5-2,0.8v39.8c-8.3-4.9-17.8-7.4-27.4-7.4
	c-0.2,0-0.4,0-0.6,0v-35.5c0-2.8-2.2-4.8-5.2-3c-0.6,0.3-1.4,0.8-2.2,1.3l0.2,38.2c-11.8,2.2-21.1,7.1-28.6,14.8v-46.2
	c0-4.4-3.7-5.7-7-3.4c-3.2,2.2-6.1,4.4-8.5,6.6c-4.7,4.3-5.4,8.1-2.3,15.6c5.6,13.7,11.2,27.4,16.8,41.1
	c8.3-12.8,22.4-20.9,36.5-20.9c25.8,0,46.8,21,46.8,46.8v0.1c0,27.1-22,49-49,49c-14.8,0-27.9-5.5-37.8-14.5l0,0
	c-0.1-0.1-0.2-0.2-0.4-0.4c-0.3-0.2-0.5-0.5-0.8-0.7c-3.2-3-5.8-6.3-8-9.6c-0.1-0.2-0.3-0.4-0.4-0.6c-0.5-0.7-0.9-1.5-1.4-2.3h0
	c-4.9-8.3-7.6-16.9-10.2-23.6c-4.5-11.6-12.4-32-16.1-42c-6.7-18.2-3.2-26,13.4-39.6c9.1-7.4,16.1-12.9,25.5-19.8
	c8-5.7,15.9-6.8,21.3-4.8c0.4,0.1,0.9,0.3,1.5,0.5c2.5,0.9,5.1,2.7,6.8,5.6c1.7-1,3.6-2.1,5.1-3c7.3-4.3,15.2-3.9,20.6-1.3
	c1,0.5,1.3,0.7,2.4,1.2c2.7,1.4,5.9,3.8,7.7,7.5c0.5-0.2,1-0.4,1.5-0.7c8-3.6,13.9-2.6,18.3,0.2c2.3,1.5,3.1,2,4.5,2.9
	c8.4,5.8,12.5,11.7,12.5,29.7V301z"/>
<path class="st0" d="M-433.5,317.9c-15.6,0-28.3,12.7-28.3,28.3s12.7,28.3,28.3,28.3c15.6,0,28.3-12.7,28.3-28.3
	S-417.9,317.9-433.5,317.9z M-454.9,346.2c0-5.1,1.8-9.8,4.8-13.5c6,8,6,19.1,0,27.1C-453.2,355.9-454.9,351.1-454.9,346.2z
	 M-433.5,367.6c-4.6,0-9.2-1.5-12.9-4.3c7.9-10,7.9-24.3,0-34.3c3.7-2.8,8.2-4.3,12.9-4.3c4.6,0,9.2,1.5,12.9,4.3
	c-7.9,10-7.9,24.3,0,34.3C-424.3,366.1-428.8,367.6-433.5,367.6z M-416.9,359.7c-6-8-6-19.1,0-27.1c3,3.7,4.8,8.4,4.8,13.5
	S-413.9,356-416.9,359.7z"/>
</svg>
