<?xml version="1.0" encoding="utf-8"?>
<!-- Generator: Adobe Illustrator 19.0.0, SVG Export Plug-In . SVG Version: 6.00 Build 0)  -->
<svg version="1.1" id="Layer_1" xmlns="http://www.w3.org/2000/svg" xmlns:xlink="http://www.w3.org/1999/xlink" x="0px" y="0px"
	 viewBox="-528 222.3 141.8 185.7" style="enable-background:new -528 222.3 141.8 185.7;" xml:space="preserve">
<style type="text/css">
	.st0{fill:#FFFFFF;}
</style>
<title>Los Angeles Dodgers hat dark logo</title>
<g>
	<path class="st0" d="M-411.4,325v19l-8.4,0c-0.4-1.6-18.3-76.4-18.3-76.4h-26.8c0,0-17.9,74.8-18.2,76.4h-6.4V240.3h14v-18
		l-45.6,0.1v17.9h13.2v104.5h-13.9V363h34.1c-0.6,2.4-5.8,24.4-6.2,25.9h-13.9V408l47.4-0.1v-19h-13.3c0.5-2.3,5.6-24.4,5.9-25.9
		h32.7c0.4,1.5,5.4,23.5,5.9,25.9h-13.3v19l47.4,0.1l0-19.1h-13.8c-0.3-1.5-5.6-23.5-6.2-25.9h22.9V325L-411.4,325L-411.4,325z
		 M-463.5,344c0.6-2.4,10.6-46.3,12-52.3c1.4,6,11.4,49.9,12,52.3L-463.5,344L-463.5,344z"/>
</g>
</svg>
