<?xml version="1.0" encoding="utf-8"?>
<!-- Generator: Adobe Illustrator 19.0.0, SVG Export Plug-In . SVG Version: 6.00 Build 0)  -->
<svg version="1.1" id="Layer_1" xmlns="http://www.w3.org/2000/svg" xmlns:xlink="http://www.w3.org/1999/xlink" x="0px" y="0px"
	 viewBox="-398 99 401.2 432" style="enable-background:new -398 99 401.2 432;" xml:space="preserve">
<style type="text/css">
	.st0{fill:#FFFFFF;}
</style>
<title>Colorado Rockies hat dark logo</title>
<g>
	<path d="M-13.7,515.4 M-13.7,518.2"/>
	<path class="st0" d="M-52.1,500.7c-14.8-14.5-41.7-90.8-64-95.8c8.2-4.1,59.5-16.1,59.8-71.6c-0.2-60.1-55.9-79.5-111.5-79.5
		c-11.8,0-33.4,0.9-55.3,2.2c-27.8,1.7-42.1,3-63.2,4.8v20.4c29.9,0,36.1,7,36.1,39.5v38.9c-41.2-8.7-68.2-54.5-68.2-118.9
		c0-68.2,32-116.1,78.8-116.1c17.6,0,33.1,7,45.4,19.8c12.3,12.7,21.1,31.2,25,53.7h16.5l-3.1-91.9h-13c-1.4,4.4-3.2,6.2-6.3,6.2
		c-8.8,0-29.5-13.2-67.2-13.2c-40.8,0-75.7,15-99.9,41.3C-367,167.2-381,203.7-381,247.7c0,30.4,8.8,64.7,28.9,91.9
		c20,27.3,52.4,47.1,99.6,47.1c0.8,0,1.6-0.1,2.4-0.1v85.8c0,31.7-6.9,38.2-36.1,38.2V531h131.7v-20.4c-27.1,0-37.2-3.9-37.2-36.1
		v-58.2h18.4c0,0,67.9,114.8,69.8,114.7c4.8,0,81.1,0,81.1,0v-20.3C-22.5,510.6-37.9,513.1-52.1,500.7L-52.1,500.7z M-366.5,245.5
		c0.1-91,71.5-119,71.5-119s-37.9,36.7-38,113.8c-0.1,71.5,35.4,116.1,35.4,116.1S-366.6,338.8-366.5,245.5L-366.5,245.5z
		 M-206,510.5h-30V277.6l30-2.1L-206,510.5L-206,510.5z M-74.1,334.4c0.2,45.8-55.8,57.3-55.8,57.3s20.7-12.5,20.7-56.8
		c0-44.7-19.8-57.4-19.8-57.4S-74.2,282.5-74.1,334.4L-74.1,334.4z M-191.8,395v-14.4c1.3,0,2.7-0.1,3.9-0.1c4.2,0,8.1,0,11.3,0.9
		c3.5,0.4,7.1,1.3,10.2,2.6l1.1-3.1c10.2-29.9,18.6-62.5,21.5-87.5h-16.5c-8.4,22.5-18.9,39.4-31.4,50.7v-69.5h17
		c33.7,0,51.5,22.6,51.5,56.9C-123.3,376.3-141.4,395.8-191.8,395L-191.8,395z M-102,510.6c0,0-38.7-69.2-56.5-93.9
		c0,0,13-2.1,19.4-3.9c5.8-1.6,10-3.3,10-3.3c15.2,7.6,36.8,41.5,48.4,69.2c12.5,25,21.4,32.1,21.4,32.1L-102,510.6L-102,510.6z"/>
</g>
</svg>
