<?xml version="1.0" encoding="utf-8"?>
<!-- Generator: Adobe Illustrator 19.0.0, SVG Export Plug-In . SVG Version: 6.00 Build 0)  -->
<svg version="1.1" id="Layer_1" xmlns="http://www.w3.org/2000/svg" xmlns:xlink="http://www.w3.org/1999/xlink" x="0px" y="0px"
	 viewBox="-519 237 159.3 156" style="enable-background:new -519 237 159.3 156;" xml:space="preserve">
<style type="text/css">
	.st0{fill:#FFFFFF;}
</style>
<path class="st0" d="M-432.1,367.9c-3.8,0-7.5-0.2-11-0.6c-0.4,8.6-2.5,16.9-5.5,25.7h32c-3-8.8-5.1-17-5.5-25.6
	C-425.4,367.7-428.7,367.9-432.1,367.9"/>
<path class="st0" d="M-422.2,350c-3.2,0.4-6.6,0.7-10.1,0.7c-3.7,0-7.3-0.2-10.6-0.7c-10.7-1.5-19.4-5.1-25.4-9.9
	c-6.4-5.1-10.5-11.8-10.5-19.2s4-14.1,10.5-19.2c6.1-4.8,14.8-8.5,25.5-9.9v-17.4c-20.3,2.1-35.2,10.4-49.7,24.9
	c-6,6-12.9,14-21.1,21.7c8.2,7.6,15.1,15.7,21.1,21.7c14.4,14.4,29.3,22.7,49.5,24.9c3.5,0.4,7.2,0.6,11,0.6c3.4,0,6.8-0.2,10-0.5
	c30.2-2.8,51.4-18.2,57.1-37.4l-22.8-0.1C-393.4,340.1-405.5,347.8-422.2,350"/>
<path class="st0" d="M-422.2,291.5c16.7,2.2,28.9,9.9,34.4,20.1l22.8-0.1c-5.8-19.3-27-34.7-57.3-37.4
	C-422.2,279.8-422.2,285.6-422.2,291.5"/>
<path class="st0" d="M-442.9,291.6c0,19.5,0.1,39.6,0,58.4c3.3,0.5,6.9,0.7,10.6,0.7c3.5,0,6.9-0.2,10.1-0.7v-81.4
	c0-6.1,0.1-10.8,0.1-15c19.4,1,37.6,7.2,53.8,18l-4.1-25.6c-16.9-6-38.6-9-60.3-9c-21.5,0-43.2,3-60.1,9l-4.1,25.8
	c16.2-10.8,34.5-17,53.8-18c0.1,4.1,0.1,8.9,0.1,15c0,7.4,0,14.9,0.1,22.6V291.6"/>
</svg>
