<?xml version="1.0" encoding="utf-8"?>
<!-- Generator: Adobe Illustrator 19.0.0, SVG Export Plug-In . SVG Version: 6.00 Build 0)  -->
<svg version="1.1" id="Layer_1" xmlns="http://www.w3.org/2000/svg" xmlns:xlink="http://www.w3.org/1999/xlink" x="0px" y="0px"
	 viewBox="-475 190.6 248.8 248.4" style="enable-background:new -475 190.6 248.8 248.4;" xml:space="preserve">
<style type="text/css">
	.st0{fill:#FFFFFF;}
</style>
<title>Washington Nationals dark logo</title>
<path class="st0" d="M-248.6,197.5c-23.1-18.5-44.1,4.6-44.1,17.9c23.1,4.9,43.7,28,34.5,88.1c-7.5,49.1-36.5,79.7-54.7,80.3
	c15.1-20.7,25.3-44,30.8-66.8c16.6-68.1-9.9-90.1-30.9-91.2c-25.5-1.3-51,33.5-58.1,74.4c-5.6,32.5-4.9,65.6,14.8,89.9
	c-17.5,22.1-59.4,28.9-52.1-24.3c6.2-44.5,28.3-93.5,40.5-117.6l0.4-0.6c6.6-13.4,11.8-23,14-26.7l-4.9-0.1
	c-47.8,0.8-85.7,11.8-103.4,36c-16.6,22.6-17.1,46.5-3.4,60.6l2,2c4,4,9.3,6.1,14.5,6.1h0c4.7,0,9.5-1.8,13.1-5.4
	c3.6-3.6,5.4-8.4,5.4-13.1c0-5.3-2.1-10.5-6.1-14.5c-2.1-2.1-4.6-3.7-7.2-4.7l0.1-0.1c0.4-0.9,0.8-1.7,1.2-2.5
	c3.2-5.6,8.8-10.7,16.1-14.4c5.7-2.9,12.5-4.9,19.8-5.6l-1.2,2.5c-10.1,18.8-24.9,54.5-29.6,73.1c-14.6,58.3,9,92.4,34.4,97.1
	c30.6,5.7,54.2-9.1,66.6-28.3c14.8,9.4,54,14.8,83.4-37.6C-218.7,311.5-217.5,222.4-248.6,197.5z M-335.2,370
	c-5.8-14.2-8.5-30.8-8.5-46.6c0-19.1,3.8-36.9,10.4-47.3c4.4-6.9,9.5-10.2,15.3-9.8c2.1,0.2,4.4,0.8,6.1,4.8c1.4,3.2,2,7.5,2,12.5
	C-309.9,308.6-324.8,351-335.2,370L-335.2,370z"/>
</svg>
