<?xml version="1.0" encoding="utf-8"?>
<!-- Generator: Adobe Illustrator 19.0.0, SVG Export Plug-In . SVG Version: 6.00 Build 0)  -->
<svg version="1.1" id="Layer_1" xmlns="http://www.w3.org/2000/svg" xmlns:xlink="http://www.w3.org/1999/xlink" x="0px" y="0px"
	 viewBox="-534 224.9 130 180.1" style="enable-background:new -534 224.9 130 180.1;" xml:space="preserve">
<style type="text/css">
	.st0{fill:#FFFFFF;}
</style>
<title>Boston Red Sox hat dark logo</title>
<path class="st0" d="M-465.3,250c-8.2,0-15.4,4.1-19,10.1v37.9c3.6,6,10.8,10.1,19,10.1c11.9,0,21.5-8.5,21.5-19
	c0-3.7-1.2-7.1-3.3-10.1c2.1-2.9,3.3-6.4,3.3-10.1C-443.8,258.5-453.4,250-465.3,250 M-449.1,289.1c0,7.5-7.3,13.6-16.2,13.6
	c-5.7,0-10.8-2.5-13.7-6.3v-34.7c2.9-3.8,7.9-6.3,13.7-6.3c8.9,0,16.2,6.1,16.2,13.6c0,4-2,7.6-5.3,10.1
	C-451.2,281.5-449.1,285.2-449.1,289.1"/>
<path class="st0" d="M-419.7,335.4c-1.6-4.8-2.2-14-11.4-20.4c9.2-6.4,9.8-15.6,11.4-20.4c2.7-7.8,4.4-12.6,10.1-15.9
	c-20.2-11.7-10.4-22.3-27.1-39c-14.4-14.4-37.1-15.6-52.9-3.4c-4.4-4.9-10.7-8-17.7-8c-13.1,0-23.7,10.6-23.7,23.7
	c0,2.8,0.5,5.5,1.4,8.1c2.3-4.7,6.8-7.9,11.9-7.9c7.4,0,13.5,6.6,13.5,14.7v27c0,2.8-0.9,15.4-17.1,21.1
	c16.2,5.7,17.1,18.3,17.1,21.1v27c0,8.1-6,14.7-13.5,14.7c-5.2,0-9.7-3.2-11.9-7.9c-0.9,2.5-1.4,5.3-1.4,8.1
	c0,13.1,10.6,23.7,23.7,23.7c7,0,13.4-3.1,17.7-8c15.7,12.1,38.4,11,52.9-3.4c16.7-16.7,7-27.3,27.1-39
	C-415.3,347.9-417.1,343.1-419.7,335.4 M-430.2,369c-1.9,5.6-3.7,10.9-10.4,17.5c-13.6,13.6-36.1,13.1-49.7-0.4
	c-2.9,6.3-9.7,10.3-17.1,10.3c-9,0-16.5-6.5-18.1-15c2.3,1.1,5,1.8,7.7,1.8c10.4,0,18.8-9,18.8-20.1v-27c0-4.7-1.8-14.2-11-21.1
	c9.2-6.9,11-16.4,11-21.1v-27c0-11-8.4-20.1-18.8-20.1c-2.7,0-5.4,0.6-7.7,1.7c1.6-8.5,9.1-15,18.1-15c7.4,0,14.2,3.9,17.1,10.3
	c13.6-13.6,36.1-14,49.7-0.4c6.7,6.7,8.5,11.9,10.4,17.5c2.1,6,4.2,12.2,11.9,18.3c-3.1,3.9-4.7,8.5-6.4,13.6
	c-0.4,1.1-0.7,2.3-1,3.6c-0.9,3.7-4.6,13.4-12.6,18.5c8,5.1,11.7,14.8,12.6,18.5c0.3,1.3,0.6,2.5,1,3.6c1.8,5.1,3.3,9.8,6.4,13.7
	C-426,356.8-428.1,363-430.2,369"/>
<path class="st0" d="M-465.3,321.8c-8.2,0-15.4,4.1-19,10v38c3.6,6,10.8,10.1,19,10.1c11.9,0,21.5-8.5,21.5-19
	c0-3.7-1.2-7.1-3.3-10.1c2.1-2.9,3.3-6.4,3.3-10.1C-443.8,330.3-453.4,321.8-465.3,321.8 M-449.1,360.9c0,7.5-7.3,13.6-16.2,13.6
	c-5.7,0-10.8-2.5-13.6-6.3v-34.7c2.9-3.8,7.9-6.3,13.6-6.3c8.9,0,16.2,6.1,16.2,13.6c0,4-2,7.6-5.3,10.1
	C-451.2,353.3-449.1,356.9-449.1,360.9"/>
</svg>
