<?xml version="1.0" encoding="utf-8"?>
<!-- Generator: Adobe Illustrator 19.0.0, SVG Export Plug-In . SVG Version: 6.00 Build 0)  -->
<svg version="1.1" id="Layer_1" xmlns="http://www.w3.org/2000/svg" xmlns:xlink="http://www.w3.org/1999/xlink" x="0px" y="0px"
	 viewBox="-503 192.2 191.5 245.8" style="enable-background:new -503 192.2 191.5 245.8;" xml:space="preserve">
<style type="text/css">
	.st0{fill:#FFFFFF;}
</style>
<title>Philadelphia Phillies hat dark logo</title>
<path class="st0" d="M-323.2,250.3c-1.3-21.7-20.5-38.5-37.6-45l-0.1,0c-5.3-1.7-11.9-3.8-18.2-5.1c-23.6-5.1-46.9-0.2-58.8,3.2
	c-25.2,7.1-47.3,26.6-56.3,49.6c-4,10.5-4,23,0.1,32c4.3,9.3,14.3,14.9,26.6,14.9c9.9,0,19-7.7,24.4-20.6c0.1-0.2,0.6-1.9,0.6-1.9
	c0.9-2.7,1.8-5.5,1.8-8.7v-2.2h-2.2c-1.4,0-3-0.6-4.5-1.1l-1.1-0.4c-0.5-0.4-1-1.5-1-2.3c1.1-6.6,6.6-13.2,14.9-18.1v95.1
	c0,0-0.3,35.9-0.3,37.4c-0.6,0.8-3.4,4.3-3.4,4.3l-4,5c-4.4,6.8-9.8,15.1-10.2,25.2v0c0,3.5,0.3,7.9,2.6,11.3
	c2.4,4.5,7.7,7.9,14.4,9.2c5.9,0.9,12.2,0.2,18.5-2c13.1-4.9,23.1-16.9,25.1-29.8c0-0.3,0.3-64.9,0.3-71c0.1-0.2,0.1-0.2,0.3-0.4
	c0.7-0.3,1.7-0.7,1.7-0.7c12.3-4.8,25-9.7,36.5-17.2c19.3-11.3,30.6-31.4,30.6-53.6C-322.9,254.9-323,252.6-323.2,250.3
	L-323.2,250.3z M-358.4,268.3c-2.1,10.6-12.2,18.4-21.3,21.5c-3.8,1.4-8.1,2-12.3,2.6c0-4.7,0.3-57.3,0.3-57.4
	c0.4,0,3.6-0.2,3.6-0.2c7.2-0.4,20.3,0.5,26.3,10.9c0.2,0.4,2.4,5.8,2.4,5.8c0.7,3.4,1.5,7.3,1.5,11.3
	C-357.7,264.6-357.9,266.5-358.4,268.3z"/>
</svg>
