<?xml version="1.0" encoding="utf-8"?>
<!-- Generator: Adobe Illustrator 19.0.0, SVG Export Plug-In . SVG Version: 6.00 Build 0)  -->
<svg version="1.1" id="Layer_1" xmlns="http://www.w3.org/2000/svg" xmlns:xlink="http://www.w3.org/1999/xlink" x="0px" y="0px"
	 viewBox="-482 198.4 233.6 233.6" style="enable-background:new -482 198.4 233.6 233.6;" xml:space="preserve">
<style type="text/css">
	.st0{fill:#FFFFFF;}
</style>
<title>Chicago Cubs hat dark logo</title>
<path class="st0" d="M-474.5,314.8c0-60.3,48.9-109.2,109.2-109.2c60.3,0,109.2,48.9,109.2,109.2S-305,424-365.3,424
	C-425.6,424-474.5,375.1-474.5,314.8z M-365.3,395.4c44.5,0,80.7-36.1,80.7-80.7c0-44.5-36.1-80.7-80.7-80.7
	c-44.6,0-80.7,36.1-80.7,80.7C-445.9,359.3-409.8,395.4-365.3,395.4L-365.3,395.4z"/>
<path class="st0" d="M-329.7,337.6c-7.5,11.7-20.6,19.4-35.5,19.4c-23.3,0-42.2-18.9-42.2-42.2c0-23.3,18.9-42.2,42.2-42.2
	c15.4,0,28.8,8.2,36.2,20.5l20.8-20.3c-12.9-17.5-33.6-28.8-57-28.8c-39.1,0-70.7,31.7-70.7,70.7c0,39.1,31.7,70.7,70.7,70.7
	c23.1,0,43.6-11.1,56.5-28.2L-329.7,337.6L-329.7,337.6z"/>
<g>
	<path class="st0" d="M-377.7,321.8c0,3.5-5.5,3.5-5.5,0v-25.7h-12.7v25.3c0,8.2,2,12.2,8.1,12.2h13.2c7.4,0,9.6-2.2,9.6-11.5v-26
		h-12.7V321.8z"/>
	<path class="st0" d="M-333.1,315c2.6-1.3,3.5-3.7,3.5-8.3c0-8.8-3.2-10.5-10.8-10.5h-20.1v37.5h20.1c7.1,0,10.8-1.3,10.8-9.6
		C-329.6,320.7-329.6,316.9-333.1,315z M-341.8,323.5c0,2-2.6,1.8-5.3,1.8V320c4.3,0,4.6-0.2,5.3,1.6h0
		C-341.6,322-341.8,323-341.8,323.5z M-341.7,308.4c0,2-3.2,1.8-5.4,1.8v-5.3c3.9,0,5.4-0.1,5.4,1.4h0V308.4z"/>
</g>
<path class="st0" d="M-304.2,333.6c6.8,0,10.4-1.9,10.4-7.9c0-0.7,0-7.6,0-8.4c0-4.4-3.1-7.2-7.5-7.2h-9.2c-2.5,0-1.9-3.6-1.9-4.7
	c0-1.8,5.2-2.3,5.2,0.6v1.7h13.5c0-8.7-1.6-11.5-10.4-11.5c-2,0-9.5,0-11.8,0c-5.6,0-8.7,2.2-8.9,8.8c-0.2,6.6,0,3.7,0,6.1
	c0,2.4-0.4,7.8,7,7.8h9.3c2.6,0,2.1,3.1,2.1,3.1v2c0,2.2-4.4,2.3-5.4,0.5c-0.7-1.2-0.3-3.1-0.3-3.1H-325c0,2.6-1.4,12.4,6.2,12.4
	L-304.2,333.6L-304.2,333.6z"/>
</svg>
