<?xml version="1.0" encoding="utf-8"?>
<!-- Generator: Adobe Illustrator 19.0.0, SVG Export Plug-In . SVG Version: 6.00 Build 0)  -->
<svg version="1.1" id="Layer_1" xmlns="http://www.w3.org/2000/svg" xmlns:xlink="http://www.w3.org/1999/xlink" x="0px" y="0px"
	 viewBox="-505 225.9 188.4 178.1" style="enable-background:new -505 225.9 188.4 178.1;" xml:space="preserve">
<style type="text/css">
	.st0{fill:#FFFFFF;}
</style>
<g>
	<title>Baltimore Orioles hat dark logo</title>
	<path class="st0" d="M-318.5,246.2c-1.8-4.2-6-8.1-12.8-9.2c-10.8-1.1-28.8,3.4-46.9,7.1c-6.4,1.4-19.9,3.1-19.9,3.1
		c-10.5-12.3-22.6-15.6-30.2-16.5c-4.3-0.6-6.4-0.1-8.2-0.7c-1.6-1.1-6.4-5.2-15.5-3.8c0,0-8.3,1.1-14.9,7.8
		c-1.3,1.3-3.6,4.3-4.7,7.5c-1.6,1.5-2.9,1.8-6.6,5.4c-23.2,19.7-13.7,45.3-10,53.8c-20.9,16.3-16.4,35.2-16.4,35.2l6.5-1
		c-0.5,84,121.3,90.1,135.9,25.9c5.3-23.3,9.6-33.8,30.5-39.3c4.2-1.2,5.9-4,5.8-6.1c-0.9-8.3-18.9-17.3-45.9-14.8
		c-1.6-5.4-1.7-7.5-1.7-7.5c13.7-3.1,32.4-9.2,45.5-19.6C-317.6,265.3-313.8,257.4-318.5,246.2 M-349.5,273.9
		c-13.1,6-28.2,9.5-32,10.5c-5.9,1.6-5.7,3.2-4.5,5.7c2.6,5.8,3.4,9.5,4.4,23.1c8.6-2.6,24-2.2,37.7,1.1
		c-8.6,3.4-17.5,9.3-25.1,19.4c-22.6,30-58.5,27.2-74.8,11.6c-3.5,3,1.1,13.1,1.1,13.1c-0.7,0.7-2.5,0-2.5,0
		c-12.1-20,0.8-25.3,10.9-25.8c4.2-0.8,3.7,1.8-0.2,2.5c-16.8,3.8,6.4,23.1,35.1,15.6c25.3-6.6,23.8-22.8,46.4-35.3
		c-18.1-3.4-30.7,1.1-36.1,3.9c-3.6,1.8-9.5,2-12.1,1c-3.3,10.2-14.2,13.1-35.1,8c-14.8-3.6-26.6,11-20,29.7
		c6.7,19.2,39.8,38.4,76.1,15.8c-3,3.8-6.6,7.1-11,9.8c-9.4,6-21.5,9.3-34.2,9.3c-18.1,0-34.9-6.5-46.1-17.8
		c-10.2-10.4-15.3-24.1-15.1-40.7c0-2.9,1-9.4,2-11.4l-7.3,0.5c0,0,2.3-10.6,18.1-19.8l0,0l-0.7-1.4c-16.2-30.8-0.8-43.1,5.9-48.6
		c5.5-4.5,6.9-4.4,7.9-8.3c0.6-2.3,2.9-4.7,5.8-6.3c3.7-2.3,8.2-2.5,10.9-0.5c2.5,2.5,7.4,3.1,10.4,3.1
		c23.3,0.8,30.3,17.8,30.3,17.8c5.3-1.6,13.9-1.8,28.8-4.8c28.5-6.3,30.6-6.5,35.2-6.9c5.3-0.5,9.8-0.2,11.6,4.3
		c1.9,4.3-3.1,9.8-4.4,11.1C-333.8,264.9-340.2,269.6-349.5,273.9"/>
	<path class="st0" d="M-456.7,248.4l11.4-4.3C-445.3,244.1-453.8,237.5-456.7,248.4 M-392.6,263.1c-19.8,2.3-37.2,15.8-37.2,15.8
		c-7.5,5,0.1,4.9,11.7,6.5c17.8,0.4,29.1-3.3,44.5-12.5c14.1-9.8,28.4-18.5,28.4-18.5S-374.3,260.8-392.6,263.1 M-363.1,272.5
		c17.8-6,32.2-15,29.6-18.5C-334.6,252.6-363.1,272.5-363.1,272.5"/>
	<path class="st0" d="M-476.1,299.3l1.5,3.1l0.7,1.4l0,0l22-11.6C-464.2,298-476.1,299.3-476.1,299.3 M-423.3,296
		c-4.1,1.3-6.1,7-5.1,13.6c0.3-1.1,0.9-2,1.8-2.5c2.5-1.4,6.1,0.5,8.2,4.3c2.1,3.7,1.7,7.8-0.7,9.2c-1.5,0.9-3.6,0.4-5.4-1
		c3.1,4.4,7.2,6.8,10.8,5.7c4.9-1.6,6.8-9.5,4.1-17.5C-412.2,299.6-418.3,294.4-423.3,296 M-402,287.5c-4.4,1.2-6.7,7.3-5.7,14.3
		c0.4-0.9,1-1.7,1.8-2.1c2.3-1.1,5.6,0.8,7.3,4.4c1.7,3.5,1.2,7.3-1.1,8.5c-1.2,0.6-2.7,0.3-4.1-0.6c2.8,4,6.5,6.2,9.8,5.3
		c5-1.3,7.3-9.1,5.1-17.3C-391.2,291.8-397,286.2-402,287.5"/>
	<path class="st0" d="M-428.2,270.7c1.2,0.7,2.7,0.8,3.9,0.4c1.5-0.5,2.6-1.6,3.4-3.1c1.6-3.4,1.4-8.7,0.1-12.2
		c0.6-0.5,1.3-1.5,1.7-2.4l-1-0.4c-0.3,0.6-0.7,1.2-1.1,1.6c-1.9-5-4.4-7.6-7-7.4c-1.5,0.1-2.9,0.8-3.7,2c-0.9,1.3-1.2,3-0.6,4.6
		c-1.4,3.4-1.3,7.3-0.3,10.3C-431.8,267.2-430.2,269.5-428.2,270.7 M-429.9,250.4c0.4-0.6,1.1-1,1.8-1c1.9,0,3.6,3.6,4.4,6.6
		c-1.3,0.7-2.4,0.6-3.5,0.2c-1.3-0.5-2.4-1.5-2.8-2.7C-430.5,252.4-430.4,251.2-429.9,250.4 M-430.3,257.1c2.3,1.4,4.5,1.4,7,0
		c0.5,1.6,0.9,4,0.9,5.8c0,1.5-0.1,3.5-0.9,4.7c-0.5,0.7-0.9,1-1.7,1.2c-2.5,0.5-4.5-3.2-5.3-5.9C-430.8,261-430.8,259-430.3,257.1"
		/>
	<path class="st0" d="M-417.2,257.2c0.2-0.1,0.3-0.2,0.4-0.3c0.2-0.4,0.3-0.9,0.2-1.2c-0.1-0.2-0.3-0.3-0.6-0.2c0-0.3,0-0.4,0.2-1
		c-0.1,0-0.1,0-0.2,0.1c-0.2,0.1-0.3,0.2-0.5,0.6c-0.3,0.6-0.4,1.6-0.2,2C-417.8,257.4-417.6,257.4-417.2,257.2 M-417.3,264.7
		L-417.3,264.7l-0.3,1.3l0.1-0.1c1-0.4,1.6-1.4,1.9-2.9l0.2-1.3l0.1-1.2v-0.4l0.1-1.3c0-0.4,0.1-0.6,0.2-0.9v-0.1
		c0,0.1,0.1,0.1,0.1,0.1c0.3,0.5,1.2,1.2,1.6,1.5c0,0,0.1,0,0.1,0.1c-0.1,0-0.1,0.1-0.1,0.1c-1.5,0.6-1.8,1.6-1.6,2.2
		c0.1,0.4,0.4,0.6,0.7,0.7c0.3,0.1,0.8,0.1,1.3-0.1c1-0.5,1.5-1.5,1.3-2.6v-0.2l-0.1-0.4c-0.1-0.2-0.3-0.5-0.8-0.9l-1-0.9l-0.4-0.3
		c-0.2-0.2-0.4-0.5-0.5-0.8v-0.1l-0.1,0.1l-1.2,0.9c-0.2,0.5-0.2,1.4-0.3,2.1l-0.2,2.4C-416.3,263.1-416.6,264.2-417.3,264.7
		 M-412.8,260.1c0.1,0.1,0.1,0.1,0.1,0.2c0.2,0.4,0.1,0.8,0,1c-0.1,0.3-0.3,0.5-0.6,0.6c-0.3,0.1-0.6,0.1-0.8-0.2
		c-0.2-0.2-0.2-0.6-0.1-0.9C-414,260.6-413.6,260.3-412.8,260.1C-412.9,260.1-412.8,260.1-412.8,260.1"/>
</g>
</svg>
