<?xml version="1.0" encoding="utf-8"?>
<!-- Generator: Adobe Illustrator 19.0.0, SVG Export Plug-In . SVG Version: 6.00 Build 0)  -->
<svg version="1.1" id="Layer_1" xmlns="http://www.w3.org/2000/svg" xmlns:xlink="http://www.w3.org/1999/xlink" x="0px" y="0px"
	 viewBox="-532 221.2 134 186.8" style="enable-background:new -532 221.2 134 186.8;" xml:space="preserve">
<style type="text/css">
	.st0{fill:#FFFFFF;}
</style>
<title>San Francisco Giants hat dark logo</title>
<path class="st0" d="M-475.8,304.4v18.8c0,0,23.9,1.5,31.2-2.9c-1.3,4.2-0.9,17.7,0,20c-9.3-4.7-31.2-2.9-31.2-2.9v18.9h35.4
	l7.5-8.8v-32.4l-8.7-10.1C-446.8,304.4-465.4,304.4-475.8,304.4L-475.8,304.4z M-530.6,237.1c7.4-3.5,15.2-10.9,18-15.9
	c7.1,3.3,72.3,2.9,79.8,0c4.5,6.6,9.4,10.4,16.3,12.6c-0.6,6.4-0.4,8.6,1.6,13.7h-17.9l-7.5-8.4h-63.9l-8.4,7.4v33.9l8.3,8.1
	l10.6,0.4c0-12.6,0.1-15-9.1-17.4c3.1-6.2,3.7-6.9,4.5-14.6c7.9,2.7,89.8,1.2,93.4-0.8c-0.6,8,4,23.3,7,28.9h-17.9
	c-0.9-6.2-4.9-11.1-11.1-12.2h-48.8v16.2c0,0,37.9,1,43-0.7c2.5,6.5,11.5,16,17.9,18.6c-2.2,13.2-1.8,35.8,0,49.5
	c-7.1,3.5-14.3,10.7-17.9,18c-8.9-2.5-43-1.2-43-1.2v10.2c1.8,6.9,5.5,8.6,12,9.2c0,0-5.2,9.9-5.5,15.6h-30.7
	c-0.1-5.6-5.5-15.6-5.5-15.6c5.9-0.3,10.7-3.8,11.6-9.2V373c0,0-10.8-0.4-18.9,1.2c-2.5-5.5-11.4-15.4-18-18c1.5-4,0.8-28.7-1.4-34
	h19.3l0,25.2l7.5,8.8h11.4v-52c0,0-10-0.5-18.9,0.2c-2.6-5-10.2-13.1-18-16.9C-528.2,278.5-528,245.7-530.6,237.1L-530.6,237.1z"/>
</svg>
