<?xml version="1.0" encoding="utf-8"?>
<!-- Generator: Adobe Illustrator 19.0.0, SVG Export Plug-In . SVG Version: 6.00 Build 0)  -->
<svg version="1.1" id="Layer_1" xmlns="http://www.w3.org/2000/svg" xmlns:xlink="http://www.w3.org/1999/xlink" x="0px" y="0px"
	 viewBox="-534 240.8 130.1 148.2" style="enable-background:new -534 240.8 130.1 148.2;" xml:space="preserve">
<style type="text/css">
	.st0{fill:#FFFFFF;}
</style>
<title>Texas Rangers cap logo</title>
<path class="st0" d="M-516.9,283.4l0,4.3h-17l6.3,7.9h18.3l0-3.1c0-17.4,1.7-28.4,19.8-30.4v-2.3
	C-509.2,259.9-516.9,266.4-516.9,283.4 M-458.1,313.8V352c0,2,0.5,3.9,5.8,3.9h2.7v-38.5c0-7.8,10.8-10.8,10.8-10.8s-2.7-1.1-5.3-3
	l-4.7,1.3C-448.9,304.9-458.1,307.6-458.1,313.8 M-412,241.1v46.6h-12.7l6.8,8.5h14v-46.6 M-458.1,291.6c0,4.7,6.9,8.5,9.5,9.5
	l2.6,1c-2-1.8-3.6-4.1-3.6-6.9v-32.5l1.5,0.1c4.6,0,8.9,1.6,12.6,4.2c-4.9-4.5-12.5-6.9-22.6-7V291.6L-458.1,291.6z M-501.7,380.2
	L-501.7,380.2l6.6,8.8h60.2v-20.1l-7.1-8.3v19.6"/>
<path class="st0" d="M-533.6,283.6h12.7c0-0.1,0-0.2,0-0.3c0-0.3,0-0.4-0.1-0.1c0-19,9.8-27.4,31.6-27.4h3.9v35.8
	c0,5.9-4,9.3-7.1,11.3c3.2,1.8,7.1,5,7.1,10.9v37.9c0,5.1-3.6,8.3-9.5,8.3h-6.5v16.1h55.4V360h-6.1c-8.2,0-9.9-4.3-9.9-8v-38.2
	c0-5.9,4.6-9.2,8.2-11c-3.6-2.1-8.2-5.8-8.2-11.2v-33.8l1.5-2h2c21.2,0,33.3,9.6,33.3,26.4c0,0,0,0.8,0,1.4h9.2v-42.8h-117.5V283.6z
	"/>
</svg>
