<?xml version="1.0" encoding="utf-8"?>
<!-- Generator: Adobe Illustrator 19.0.0, SVG Export Plug-In . SVG Version: 6.00 Build 0)  -->
<svg version="1.1" id="Layer_1" xmlns="http://www.w3.org/2000/svg" xmlns:xlink="http://www.w3.org/1999/xlink" x="0px" y="0px"
	 viewBox="-542 223.8 114.5 183.2" style="enable-background:new -542 223.8 114.5 183.2;" xml:space="preserve">
<style type="text/css">
	.st0{fill:#FFFFFF;}
	.st1{fill:#C4CED4;}
</style>
<title>Seattle Mariners Cap Logo on Light</title>
<path class="st0" d="M-478.7,289.4c1.4,0.4,2.7,0.9,4,1.5l3.4-2.2c-2.7-1.5-5.6-3.1-8.2-4.8L-478.7,289.4L-478.7,289.4z
	 M-493.9,332.8L-493.9,332.8L-493.9,332.8L-493.9,332.8z M-495.6,332L-495.6,332C-495.6,332-495.6,332-495.6,332L-495.6,332z"/>
<path class="st0" d="M-442.2,315c-1.4,0.2-3,0.5-4.6,0.8l-0.2,0c3.9,7.1,6.3,15.9,6.3,26.8c0,32.9-21.4,56.2-46.1,56.2
	c-15.8,0-22-6.2-25.9-7.4l-17.1,6.2v-54c4.1,0.5,7.6,4.2,9.5,8c7.6,15.2,16.2,28.1,32.5,28.1c9.6,0,16-8.9,16-21.5
	c0-7-3.1-12.6-7.8-17.3c0,0.3-0.1,0.5-0.1,0.8c-0.4,2.3-0.7,4.4-1,6c2.7,3.9,4.1,7.7,4.1,11.4c0,4.7-1.2,15.6-12.4,15.6
	c-15.4,0-24-19.4-27.8-27.7c-2.9-6.4-10.9-10.6-15.6-11.1l-2.5-0.3v69.2c0,0,20-7.2,21.5-7.7c0.5,0.2,1,0.4,1,0.4
	c6,2.5,15,6.4,24.5,6.4c25.6,0,52.1-22.7,52.1-60.8C-435.7,332.6-437.9,323.2-442.2,315L-442.2,315z M-462.6,293.6
	c-0.4,0.8-0.7,1.6-1.2,2.5c0,0-0.3,0.6-0.7,1.5c0,0.1-0.1,0.2-0.1,0.3c4.3,2.7,8.3,5.9,11.7,9.8c0.1,0,0.1,0,0.2,0
	c2.2,0.4,4.4,0.7,6.6,1.1C-450.3,302.9-455.8,297.8-462.6,293.6L-462.6,293.6z M-464.8,232.2c-5.6-4.2-14.5-8.4-24.3-8.4
	c-18.7,0-46.3,17.2-46.3,54c0,12.5,2.7,22.8,8.5,31.5c1.5-0.2,3.1-0.5,4.8-0.8l0.6-0.1c-5.4-7.5-8.8-17.4-8.8-31.7
	c0-27.6,22.1-48.2,41.6-48.2c8,0,17.8,5.4,23.1,9.6c3.1-1.1,14.5-5.7,14.5-5.7v49.1c-3.4-0.8-7.2-3.4-8.9-6.4
	c-7.4-12.7-12.1-27.1-24.6-27.1c-9.6,0-14.2,6.9-14.2,16.5c0,6.7,3.5,12.7,9.1,17.9c0-0.1,0-0.3,0.1-0.4c0.3-2.1,0.6-4,0.9-5.4
	c-3.2-3.4-5.2-7.3-5.2-11.6c0-3.6,0.8-11.8,8.5-11.8c8.4,0,12.6,7.9,14.4,12.6c1.7,4.5,5.6,11.7,11.1,16.6l3-1.8l-1.4,3c0,0,0,0,0,0
	c2.9,2.2,6.2,3.8,9.8,4.2l2.4,0.2v-62.7C-446,225.2-462.9,231.5-464.8,232.2L-464.8,232.2z"/>
<path class="st0" d="M-495.8,292.3L-495.8,292.3L-495.8,292.3 M-475.7,332.7L-475.7,332.7L-475.7,332.7 M-468.5,358.4
	c0,16.5-9.1,25-18.8,25c-28.2,0-34.4-30.9-39.1-33.8v43c4-0.9,12.8-5.5,12.8-5.5c3.9,0,11.4,8.5,25.5,8.5
	c21.3,0,43.8-20.9,43.8-52.2c0-11.6-2.7-20.2-6.9-26.9c-3,0.5-7.4,1.2-11,1.8c-0.7,2.4-1.7,4.6-3,6.6c0.3,0.8,0.6,1.3,0.6,1.3
	c0.6,1.3,7.6,18.3,7.6,18.3s-11.6-7.3-17.8-11.2c-1.2,0.6-2.5,1.1-3.8,1.4c-0.1,0.7-0.2,1.5-0.4,2.4
	C-472.8,342.3-468.5,348.7-468.5,358.4L-468.5,358.4z M-466.7,325.5L-466.7,325.5 M-507.5,318.2c-0.1,0-0.1,0-0.2,0
	c0.1,0.1,0.2,0.1,0.2,0.2C-507.5,318.3-507.5,318.2-507.5,318.2L-507.5,318.2z M-505.5,297.1c-4.8-10.8-6.4-16.7-6.4-16.7
	s10.8,6.7,16.9,10.5c1.3-0.6,2.7-1.2,4.2-1.5c0.1-0.8,0.3-1.7,0.4-2.6c-7-5.3-11.9-11.8-11.9-22.2c0-12.6,7.7-20.2,16.1-20.2
	c20.3,0,22.8,25.2,31.6,31.5v-38.5c-3.3,1.3-10.6,4.6-10.6,4.6c-1.9,0-4.4-2.4-8.1-5c-3.8-2.4-8.8-4.8-15.3-4.8
	c-18,0-38.4,18-38.4,44.8c0,13.8,3.6,23.5,9.1,30.9c2.8-0.4,6.9-1.1,10.4-1.7c0.6-2.5,1.7-4.9,3.1-7
	C-505.1,298-505.5,297.1-505.5,297.1L-505.5,297.1z M-478.5,333.8L-478.5,333.8L-478.5,333.8 M-462.1,306.1c0.7,0.1,1.4,0.2,2.2,0.4
	c-0.9-0.8-1.8-1.5-2.8-2.3C-462.5,304.8-462.3,305.5-462.1,306.1L-462.1,306.1z M-506.7,306L-506.7,306L-506.7,306"/>
<path class="st1" d="M-499.8,295.1c-0.3,0.3-0.6,0.6-0.9,0.9C-500.4,295.6-500.1,295.3-499.8,295.1
	C-499.8,295-499.8,295.1-499.8,295.1z"/>
<path class="st0" d="M-478,300.2l-0.7-0.6c0.1,0.4,0.1,0.8,0.2,1.1c0-0.2,0.1-0.4,0.1-0.4C-478.5,300.3-478,300.2-478,300.2z"/>
<path class="st0" d="M-469.9,327.7c-0.2,0.1-0.6,1.6-0.6,1.6c0,0,0.1,0.1,0.1,0.2c0,0,0.1-0.1,0.2-0.1c0.1,0,0.1-0.1,0.2-0.2
	c0,0,0.1,0,0.1-0.1c0.1-0.1,0.1-0.1,0.2-0.2l0.2-0.6l0.3,0.2c0.1-0.1,0.2-0.2,0.2-0.2c0.1-0.1,0.2-0.2,0.3-0.3
	c0.1-0.1,0.2-0.2,0.3-0.3c-0.5,0.1-1,0.3-1.1,0.3C-469.7,327.8-469.9,327.7-469.9,327.7L-469.9,327.7z"/>
<path class="st0" d="M-471.5,326.6c-0.2,0.1-0.6,1.7-0.6,1.7c0.1,0.1,0.5,0.4,0.5,0.4l0.1,0.1l0.4-1.6l0.4,0.2
	c0.1,0,1.9-0.5,1.9-0.5c0-0.2-0.5-0.5-0.5-0.5c-0.1,0-1.8,0.5-1.9,0.5C-471.2,326.8-471.5,326.6-471.5,326.6L-471.5,326.6z
	 M-470.6,325.6L-470.6,325.6L-470.6,325.6c-0.1-0.2-0.5-0.3-0.5-0.3c-0.1,0-1.7,0.6-1.8,0.6c-0.2-0.1-0.4-0.2-0.4-0.2
	c-0.2,0.1-0.4,1.7-0.4,1.7c0.1,0.1,0.6,0.4,0.6,0.4l0.1,0.1l0.3-1.6l0.4,0.2c0.1,0,1.8-0.6,1.8-0.6
	C-470.5,325.6-470.6,325.6-470.6,325.6L-470.6,325.6z M-473.2,324.2c-0.1,0-1.7,0.7-1.8,0.7c-0.2-0.1-0.5-0.2-0.5-0.2
	c-0.1,0.1-0.3,1.7-0.3,1.7c0.1,0.1,0.6,0.3,0.6,0.3l0.1,0.1l0.1-1.6l0.5,0.2c0.1,0,1.8-0.7,1.8-0.7
	C-472.6,324.4-473.2,324.2-473.2,324.2z M-474.8,323.6c0,0,0-0.1-0.1-0.1h0h0c-0.2-0.2-0.6-0.3-0.6-0.3c-0.1,0-1.6,0.9-1.6,0.9
	c-0.2-0.1-0.6-0.2-0.6-0.2c-0.1,0.1,0,1.7,0,1.7c0.1,0.1,0.7,0.2,0.7,0.2l0.2,0l-0.2-1.6l0.5,0.1
	C-476.3,324.5-474.8,323.6-474.8,323.6L-474.8,323.6z M-477.5,322.8L-477.5,322.8c-0.2-0.2-0.6-0.2-0.6-0.2c0,0-0.1,0.1-0.3,0.2
	c0,0.3-0.1,0.6-0.1,0.9C-478.1,323.3-477.4,322.9-477.5,322.8C-477.4,322.8-477.5,322.8-477.5,322.8z M-491.9,324
	c-0.2,0-0.6,0.1-0.6,0.1c0,0,0,0.1,0,0.1l0,0l0,0c0.3,0.4,1.3,1.2,1.3,1.2c0.1,0,0.2,0,0.4-0.1c0-0.2-0.1-0.4-0.1-0.6l-0.8-0.7
	l0.5-0.1c0,0,0.1-0.3,0.1-0.5c0-0.3-0.1-0.6-0.1-1c-0.2,0-0.5,0.1-0.5,0.1C-491.7,322.7-491.8,323.7-491.9,324L-491.9,324z
	 M-494.7,325.1L-494.7,325.1c0.4,0.4,1.5,1.1,1.5,1.1c0.1,0,0.6-0.2,0.6-0.2l0.2-0.1l-1.6-1l0.4-0.1c0.1-0.1,0.3-1.5,0.3-1.5
	c-0.2-0.1-0.7,0.1-0.7,0.1c-0.1,0.1-0.3,1.2-0.3,1.4C-494.5,324.9-494.8,325-494.7,325.1C-494.8,325-494.8,325-494.7,325.1
	L-494.7,325.1L-494.7,325.1z M-496.5,325.8c0,0,0,0.1,0.1,0.1l0,0l0,0c0.3,0.3,1.5,1,1.5,1c0.1,0,0.6-0.2,0.6-0.2l0.2-0.1l-1.6-0.9
	l0.3-0.2c0.1-0.1,0-1.5,0-1.5c-0.2-0.1-0.7,0.2-0.7,0.2c-0.1,0.1,0,1.2,0,1.4C-496.3,325.7-496.5,325.8-496.5,325.8L-496.5,325.8z
	 M-497.9,325.1c0,0.1,0.1,1.2,0.1,1.4c-0.2,0.1-0.4,0.2-0.4,0.2c0,0,0,0,0.1,0.1h0l0,0c0.3,0.3,1.6,0.9,1.6,0.9
	c0.1,0,0.6-0.3,0.6-0.3l0.2-0.1l-1.7-0.8l0.3-0.2c0.1-0.1-0.1-1.5-0.1-1.5C-497.4,324.8-497.9,325.1-497.9,325.1L-497.9,325.1z
	 M-499.8,326.3c0,0.1,0.3,1.1,0.4,1.3c-0.1,0.1-0.3,0.3-0.3,0.3c0,0,0,0.1,0.1,0.1h0c0.3,0.3,1.7,0.8,1.7,0.8c0.1,0,0.5-0.3,0.5-0.3
	l0.1-0.1l-1.7-0.7l0.3-0.2c0-0.1-0.4-1.4-0.4-1.4C-499.4,326-499.8,326.3-499.8,326.3L-499.8,326.3z M-500.7,327.2
	c-0.2,0-0.6,0.3-0.6,0.3c0,0,0,0.2,0.1,0.3c0.1,0.1,0.2,0.2,0.3,0.3c0.1,0.1,0.3,0.3,0.4,0.4c0.1,0.1,0.1,0.1,0.1,0.1l0.1,0
	C-500.2,328.4-500.7,327.2-500.7,327.2z M-498.8,329.5l-1-0.4c0.1,0.1,0.2,0.1,0.2,0.2c0.1,0.1,0.2,0.2,0.2,0.2l0.1,0
	c0.1,0.1,0.1,0.1,0.2,0.1c0.1-0.1,0.1-0.1,0.1-0.1L-498.8,329.5L-498.8,329.5z M-499.7,296.7c0.2-0.1,0.6-1.6,0.6-1.6
	c0-0.1-0.2-0.2-0.3-0.3c-0.1,0.1-0.2,0.2-0.3,0.3l-0.3,1l-0.3-0.2c0,0-0.2,0-0.4,0.1c-0.1,0.1-0.2,0.2-0.3,0.3
	c-0.1,0.1-0.2,0.2-0.3,0.3c-0.1,0.1-0.2,0.2-0.3,0.3c0.4-0.1,1.4-0.4,1.6-0.5C-499.9,296.5-499.7,296.7-499.7,296.7z"/>
<path class="st0" d="M-498.1,297.7c0.2-0.1,0.6-1.7,0.6-1.7c0-0.1-0.5-0.4-0.5-0.4l-0.1-0.1l0,0.1l-0.4,1.4l-0.4-0.2
	c-0.1,0-1.9,0.5-1.9,0.5c0,0.2,0.4,0.5,0.4,0.5c0.1,0,1.8-0.5,1.9-0.5C-498.4,297.6-498.1,297.7-498.1,297.7L-498.1,297.7z
	 M-496.3,298.7c0.2-0.1,0.4-1.7,0.4-1.7c-0.1-0.1-0.5-0.4-0.5-0.4l-0.1-0.1l0,0.1l-0.2,1.5l-0.4-0.2c-0.1,0-1.8,0.6-1.8,0.6
	c0,0.2,0.5,0.5,0.5,0.5c0.1,0,1.8-0.6,1.8-0.6C-496.5,298.6-496.3,298.7-496.3,298.7L-496.3,298.7z M-494.1,299.7
	c0.2-0.1,0.3-1.7,0.3-1.7c-0.1-0.1-0.6-0.3-0.6-0.3l-0.1-0.1l0,0.1l-0.1,1.5l-0.5-0.2c-0.1,0-1.8,0.7-1.8,0.7c0,0.2,0.6,0.4,0.6,0.4
	c0.1,0,1.8-0.7,1.8-0.7C-494.4,299.5-494.1,299.7-494.1,299.7L-494.1,299.7z M-492,298.6c-0.1-0.1-0.7-0.3-0.7-0.3l-0.2-0.1l0,0.2
	l0.2,1.4l-0.5-0.1c-0.1,0-1.6,0.9-1.6,0.9c0,0,0,0.1,0.1,0.1h0c0.2,0.2,0.6,0.3,0.6,0.3c0.1,0,1.6-0.9,1.6-0.9
	c0.2,0.1,0.5,0.2,0.5,0.2C-491.8,300.2-492,298.6-492,298.6L-492,298.6z M-492.1,301.6L-492.1,301.6L-492.1,301.6
	c0.2,0.1,0.6,0.2,0.6,0.2c0,0,0.2-0.1,0.4-0.2c0-0.3,0.1-0.6,0.1-0.9C-491.4,300.9-492.2,301.5-492.1,301.6
	C-492.1,301.5-492.1,301.5-492.1,301.6L-492.1,301.6z M-477.7,300.3c0.2,0,0.6-0.1,0.6-0.1c0,0,0-0.1,0-0.1l0,0l0,0
	c-0.3-0.4-1.3-1.2-1.3-1.2c0,0-0.2,0-0.3,0c0,0.2,0.1,0.5,0.1,0.7l0.7,0.6l-0.5,0.1c0,0-0.1,0.2-0.1,0.4c0.1,0.4,0.1,0.8,0.2,1.1
	c0.2,0,0.4-0.1,0.4-0.1C-477.9,301.7-477.8,300.6-477.7,300.3L-477.7,300.3z M-474.8,299.2L-474.8,299.2c-0.4-0.4-1.5-1.1-1.5-1.1
	c-0.1,0-0.6,0.2-0.6,0.2l-0.2,0.1l1.6,1l-0.4,0.1c-0.1,0.1-0.3,1.5-0.3,1.5c0.1,0.1,0.7-0.1,0.7-0.1c0.1-0.1,0.3-1.2,0.3-1.4
	c0.2-0.1,0.5-0.2,0.5-0.2C-474.8,299.3-474.8,299.3-474.8,299.2L-474.8,299.2L-474.8,299.2z M-473.1,298.4L-473.1,298.4
	L-473.1,298.4c-0.4-0.4-1.6-1-1.6-1c-0.1,0-0.6,0.2-0.6,0.2l-0.2,0.1l1.6,0.9l-0.3,0.2c-0.1,0.1,0,1.5,0,1.5
	c0.2,0.1,0.7-0.2,0.7-0.2c0.1-0.1,0-1.2,0-1.4C-473.3,298.6-473,298.5-473.1,298.4C-473,298.5-473.1,298.5-473.1,298.4L-473.1,298.4
	z M-471.4,297.6C-471.4,297.6-471.4,297.5-471.4,297.6l-0.1-0.1h0c-0.3-0.3-1.6-0.9-1.6-0.9c-0.1,0-0.5,0.3-0.5,0.3l-0.2,0.1
	l1.7,0.8l-0.3,0.2c-0.1,0.1,0.1,1.5,0.1,1.5c0.2,0.1,0.6-0.2,0.6-0.2c0-0.1-0.1-1.2-0.1-1.4C-471.6,297.7-471.4,297.6-471.4,297.6
	L-471.4,297.6z M-472.1,295.9l-0.1,0.1l1.7,0.7l-0.3,0.2c0,0.1,0.5,1.4,0.5,1.4c0.2,0,0.6-0.3,0.6-0.3c0-0.1-0.3-1.1-0.4-1.3
	c0.1-0.1,0.3-0.3,0.3-0.3s0-0.1-0.1-0.1h0c-0.3-0.3-1.7-0.8-1.7-0.8C-471.7,295.6-472.1,295.9-472.1,295.9z M-468.9,297.1
	c0.2,0,0.6-0.3,0.6-0.3c0,0,0-0.2-0.1-0.4l-0.3-0.4c-0.1-0.1-0.2-0.2-0.3-0.3c0-0.1-0.1-0.1-0.1-0.1l-0.1,0.1
	C-469.4,295.9-468.9,297.1-468.9,297.1L-468.9,297.1z M-470.8,294.9l1.1,0.4c-0.1-0.1-0.2-0.2-0.3-0.3c-0.1,0-0.1-0.1-0.2-0.2
	c-0.1,0-0.1-0.1-0.2-0.1c-0.1,0-0.1-0.1-0.2-0.1c-0.1,0.1-0.2,0.2-0.2,0.2L-470.8,294.9L-470.8,294.9z"/>
<path class="st0" d="M-500.4,294.5c1.2-1,2.4-1.9,3.8-2.7c-6.5-4-13-8.1-13-8.1L-500.4,294.5L-500.4,294.5z M-469.4,294.4
	c1.2,1,2.2,2.1,3.2,3.4c3.2-6.9,6.6-13.9,6.5-14.2L-469.4,294.4L-469.4,294.4z M-500.1,329.9c-1.2-1-2.3-2.1-3.2-3.3
	c-3.2,7-6.3,14-6.2,14L-500.1,329.9L-500.1,329.9z M-469.4,329.7c-1.2,1-2.4,1.9-3.8,2.7c6.6,4.2,13.1,8.2,13.1,8.2L-469.4,329.7z"
	/>
<path class="st0" d="M-478.1,305.3c-0.2,0.2-0.8,0.8-1.6,1.6c-1.9,1.9-4.8,5-5.1,5.3c-0.2,0.2-0.8,0.9-1.6,1.8
	c0.8-0.9,1.5-1.5,1.6-1.8c0.2-0.3,3.2-3.3,5.1-5.3C-478.9,306.1-478.3,305.5-478.1,305.3L-478.1,305.3z"/>
<path class="st0" d="M-484.8,312.2C-484.8,312.2-484.7,312.2-484.8,312.2C-484.7,312.2-484.7,312.2-484.8,312.2
	C-484.8,312.2-484.8,312.2-484.8,312.2z"/>
<path class="st0" d="M-478.1,305.3c0,0,0.1,0,0.2,0c0-0.2-0.1-0.6-0.1-1.2c-0.1-0.6-0.2-1.4-0.3-2.4c0-0.3-0.1-0.7-0.2-1.1
	c-0.1-0.4-0.1-0.7-0.2-1.1c0-0.2-0.1-0.5-0.1-0.7c-0.1-1-0.3-2-0.5-3.2c-0.3-1.8-0.6-3.8-0.9-5.8c0-0.3-0.1-0.6-0.1-0.9
	c-1.9-12.1-4.2-26.2-4.4-26.1v49.3c0.3-0.3,3.2-3.3,5.1-5.3C-478.9,306.1-478.3,305.5-478.1,305.3L-478.1,305.3z"/>
<path class="st0" d="M-484.8,312.2L-484.8,312.2c-0.2,0.2-0.8,0.9-1.6,1.7c-0.1,0.1-0.2,0.2-0.4,0.4c-0.3,0.3-0.7,0.7-1,1.1
	c-0.7,0.7-1.3,1.4-2,2c-0.7,0.7-1.3,1.2-1.7,1.6c0,0-0.1,0-0.1,0c0,0.3,0.1,0.6,0.1,1.1l0,0c0.1,0.6,0.2,1.4,0.3,2.4
	c0,0.3,0.1,0.6,0.1,1c0.1,0.4,0.1,0.9,0.2,1.3c0,0.2,0.1,0.4,0.1,0.6c0.1,1,0.3,2,0.5,3.1c0.3,1.8,0.6,3.7,0.9,5.7
	c0.1,0.3,0.1,0.6,0.1,0.9c1.9,12.1,4.3,26.4,4.4,26.4L-484.8,312.2L-484.8,312.2z"/>
<path class="st0" d="M-484.8,312.2c-0.5-0.7-5-5.3-6.7-6.8c0,0-0.1,0-0.1,0c-1,0.1-4,0.5-7.9,1.1c-2.3,0.3-4.9,0.8-7.6,1.2
	c-0.3,0.1-0.6,0.1-0.9,0.1c-11.8,1.9-25.5,4.2-25.5,4.4L-484.8,312.2L-484.8,312.2z"/>
<path class="st0" d="M-484.8,312.2C-484.7,312.2-484.7,312.2-484.8,312.2c0.8,0.9,5,5.3,6.7,6.8c0.1,0,0.1,0,0.2,0
	c1-0.1,3.9-0.5,7.8-1.1c2.2-0.3,4.7-0.7,7.4-1.2l0.9-0.1c12.1-1.9,26.4-4.3,26.4-4.4C-435.4,312.2-484.8,312.2-484.8,312.2z"/>
</svg>
