<?xml version="1.0" encoding="utf-8"?>
<!-- Generator: Adobe Illustrator 19.0.0, SVG Export Plug-In . SVG Version: 6.00 Build 0)  -->
<svg version="1.1" id="Layer_1" xmlns="http://www.w3.org/2000/svg" xmlns:xlink="http://www.w3.org/1999/xlink" x="0px" y="0px"
	 viewBox="-528 219.8 142.6 190.2" style="enable-background:new -528 219.8 142.6 190.2;" xml:space="preserve">
<style type="text/css">
	.st0{fill:#FFFFFF;}
</style>
<title>Los Angeles Angels of Anaheim hat dark logo</title>
<g>
	<rect x="-445.9" y="274.3" class="st0" width="0" height="5.9"/>
	<polygon class="st0" points="-467,275.5 -468.4,280.2 -468.4,280.2 	"/>
	<path class="st0" d="M-466.7,274.5L-466.7,274.5L-466.7,274.5L-466.7,274.5l4.8-16.6c0,0,0,0,0,0c-13,0.8-22.7,4.3-22.7,8.5
		C-484.6,270.1-477.2,273.2-466.7,274.5L-466.7,274.5z"/>
	<path class="st0" d="M-451.5,258.1l4.8,16.4h0c10.5-1.2,17.9-4.4,17.9-8.1c0-4.2-9.8-7.8-22.8-8.5L-451.5,258.1z"/>
	<polygon class="st0" points="-427.8,370.9 -427.8,370.9 -429.9,369.3 	"/>
	<path class="st0" d="M-485.7,370.9l28.9-99.1v0l28.9,99.1l-28.9-99.1V261c2.1,0,4.1,0.1,6.1,0.2l0,0c-2-0.1-4-0.2-6.1-0.2v10.8
		L-485.7,370.9L-485.7,370.9z"/>
	
		<rect x="-501.2" y="382.5" transform="matrix(0.2801 -0.96 0.96 0.2801 -719.3229 -194.0782)" class="st0" width="24.3" height="0"/>
	<path class="st0" d="M-405.6,394.9l-15-51.6c-2.4-8.2,2-14,2.6-15c-5.2-2.8-9.1-7.1-10.5-12.2l-9.2-31.4
		c12.9-3.4,21.7-10.3,21.7-18.2c0-10-14.2-18.3-32.9-20.2l-6.6-22.7h-2.4l-6.6,22.7c-18.8,1.8-32.9,10.2-32.9,20.2
		c0,7.9,8.8,14.7,21.7,18.2l-9.2,31.4c-1.5,5.1-5.3,9.4-10.5,12.2c0.6,0.9,5,6.8,2.6,15l-15.1,51.6c-1.2,4.1-3.3,8.1-5.9,11.4h37.5
		c-3-6.7-1.4-11.6-0.1-16.2l1.3-4.6h36.4l1.3,4.6c1.3,4.6,2.9,9.5-0.1,16.2h37.5h0C-402.3,402.9-404.4,399-405.6,394.9z
		 M-456.7,240.2L-456.7,240.2L-456.7,240.2l3.4,11.6c-1.1,0-2.2-0.1-3.4-0.1l0,0c-1.1,0-2.3,0-3.4,0.1L-456.7,240.2z M-409.7,400.5
		L-409.7,400.5C-409.7,400.5-409.7,400.5-409.7,400.5L-409.7,400.5l-20.5,0c0.5-3.1,0-7.2-0.8-10.1l-3.1-10.6h-45.1l0,0l-3.1,10.6
		c-0.9,2.9-1.3,7-0.9,10.1l-9.2-6.2l0,0l9.2,6.2h-20.5c0.8-1.7,1.5-3.5,2.1-5.3l14.4-49.3c2.3-7.7,1-11-0.6-15.7
		c4.3-3.3,7.2-7.6,8.6-12.5l10.9-37.5h0c-13.5-2-23.2-7.4-23.2-13.8c0-7.6,13.8-13.8,31.4-14.6c1.1,0,2.2-0.1,3.4-0.1
		c1.1,0,2.3,0,3.4,0.1c17.6,0.7,31.4,7,31.4,14.6c0,6.4-9.7,11.8-23.2,13.8l10.9,37.5c1.4,4.9,4.3,9.2,8.6,12.5
		c-1.6,4.6-2.9,8-0.6,15.7l14.4,49.3C-411.2,396.9-410.5,398.7-409.7,400.5L-409.7,400.5L-409.7,400.5z"/>
	<path class="st0" d="M-439.3,362l-17.4-59.7l-17.4,59.7L-439.3,362z M-447.1,356.2h-19.3l9.6-33L-447.1,356.2z"/>
</g>
</svg>
