<?xml version="1.0" encoding="utf-8"?>
<!-- Generator: Adobe Illustrator 19.0.0, SVG Export Plug-In . SVG Version: 6.00 Build 0)  -->
<svg version="1.1" id="Layer_1" xmlns="http://www.w3.org/2000/svg" xmlns:xlink="http://www.w3.org/1999/xlink" x="0px" y="0px"
	 viewBox="-502 223.3 194.8 182.7" style="enable-background:new -502 223.3 194.8 182.7;" xml:space="preserve">
<style type="text/css">
	.st0{fill:#FFFFFF;}
</style>
<title>Atlanta Braves hat dark logo</title>
<path class="st0" d="M-318.4,357.9c-2.6-2.6-5.5-5.4-4.7,2.1c1.3,12.8-5.2,21.9-13.6,23.3c-8.1,1.3-23.3-14.3-28.5-42.2
	c41.8-12.6,34.5-42.1,31.1-45.9c-2.9-3.2-4.4-3.2-5,2.1c-1.5,13.3-10.8,22.4-27.9,28.6c-1-24.2,5.4-55.1,26.8-90.3
	c6.4-10.5-2.1-4.4-4.4-3.1c-46.4,24.1-69,71.7-86.5,106.7c-23.2,7.9-29.2,22.5-29.8,25c-0.8,3.4-0.5,4.1,3.7,2.1
	c5.8-2.8,11-5,15.6-7c-7.5,13.1-14.8,21.8-23.7,22.2c-17.8,0.9-24.8-14.6-24.8-17.2c0-5-2.4-5.2-5,3.7c-3.5,12,5.7,32.2,30.8,31.9
	c19.1-0.3,32.4-22.7,44.9-48.6c14.5-4,23.9-3.9,41-7c7.9,39.1,29.1,62.1,51.5,52.5C-311.1,389.9-310.5,365.5-318.4,357.9
	L-318.4,357.9z M-380.4,330c-8.9,2.1-19,3.7-30.8,5c-0.2,0-0.4,0-0.6,0.1c9.8-21.1,19.7-41.8,32.2-52.9
	C-381.8,299.3-381.9,315.4-380.4,330L-380.4,330z"/>
</svg>
