<?xml version="1.0" encoding="utf-8"?>
<!-- Generator: Adobe Illustrator 19.0.0, SVG Export Plug-In . SVG Version: 6.00 Build 0)  -->
<svg version="1.1" id="Layer_1" xmlns="http://www.w3.org/2000/svg" xmlns:xlink="http://www.w3.org/1999/xlink" x="0px" y="0px"
	 viewBox="-482 214.1 233 200.9" style="enable-background:new -482 214.1 233 200.9;" xml:space="preserve">
<style type="text/css">
	.st0{fill:#1D2D5C;}
	.st1{fill:#FFFFFF;}
</style>
<title>Toronto Blue Jays hat dark logo</title>
<path class="st0" d="M-318.7,324.5l-4.3,5.1L-318.7,324.5"/>
<path class="st1" d="M-395.9,285.3c-1.8,1.2-3.1,3.5-3.1,5.7h2.9C-396.1,289.9-396.5,287.8-395.9,285.3z"/>
<path class="st1" d="M-249,300.9l-4.8-1.7l-2.6-0.9l0.9-11.2l0.3-3.8l-3.7,0.6l-9.9,1.7l-1.5-3.7l-1.6-4.1l-3.2,3.1
	c-0.1,0.1-4.9,4.8-7.5,7.3c0.5-4.7,1.6-16.6,1.6-16.7l0.5-4.8l-4.5,1.8l-2,0.8c0.2-1,0.4-1.9,0.6-2.8c1.2-5.9,4.2-16.3,9.8-24.2
	c0,0-3.6-0.9-9.1,0.7c-1.6,0.5-0.1,0-0.2,0.1c1.8-4.4,10-15.5,10-15.5s-11.5-0.2-15.9,2.4c2.7-8.9,0.4-15.8,0.4-15.8l-9,10.4
	c-15.5,18-53.1,22.9-78.1,26.2c-10.1,1.4-18.1,2.4-23,4c-11.9,3.9-18.1,10.5-21.8,15.7l-2.4,1c-4.5,1.9-7.1,4.4-9.6,8.1
	c-25.6,4.4-40.5,9.1-45.3,14.4l-0.3,0.4c-1.1,1.5-1.4,3.2-1,4.8c-0.2,1.4,0.1,3.5,2.6,5.4l0.2,0.1c5.9,4.2,23.4,10.9,44.2,14.8
	c9.4,1.7,13.4,3.1,19.4,8.5c29.7,26.9,44.3,67.3,50.9,87l7.4-13.7c24.8-43.6,49.2-63.7,49.5-64l5.1-4.7l0.1,0.3l2.6,5l2.6-5l1-1.9
	l19.3,1.6l7,0.6l-4.5-5.4l-2.4-2.9l23.9-20.6L-249,300.9L-249,300.9z M-399.9,259.4c16.5-5.4,80.3-5.1,103.2-31.6c0,0-0.1,5.5-2,9.9
	c4.9-2.8,9.9-4.3,15.1-5.1c-5.4,6.2-9.3,11.5-12,18.8c4.7-3.3,7.8-4.6,12.1-4.7c-4.3,4.1-5.8,13-7.9,21.5l-5.9-9.7l-2.5-4.1
	l-2.5,4.1l-7.3,12l-4.9-2l-4.5-1.8l0.5,4.8c0,0.1,1.2,12,1.6,16.7c-2.6-2.5-7.4-7.3-7.5-7.3l-3.2-3.1l-1.6,4.1l-1.5,3.7l-9.9-1.7
	l-3.7-0.6l0.2,2.6c-6.7-0.4-11.2-1.2-17.9-2.9c-5.5-1.3-13.6-4.5-21.1-6.9c4.5-0.6,9.7-0.7,16.2-0.1c0,0-27.1-8.8-39.9-0.2
	c-1.7,1-3,2.3-3.7,3.6c-1.7,3.5-0.4,6.9-0.4,6.9c-5.2,0-9.5-5.8-9.2-11.8C-416.3,268.8-410.7,262.9-399.9,259.4L-399.9,259.4z
	 M-476.8,297.2c2.8-3.1,13.5-8.1,44.6-13.2c2.9-4.5,4.8-6.4,8.6-8c0.7,6.2,4.1,13.5,12.8,14c8-0.1,9.6-8.5,18.3-8.5
	c8.8,0,10.3,8.5,18.6,8.5h30.2l0.4,5h-30.1c-0.2,0-0.5,0-0.7,0c-8.1,0.2-9.7,8.5-18.4,8.5c-8.7,0-10.2-8.4-18.5-8.5h-1.3
	c-4.4,0-6.7,1.5-8,3.2c-2,0-4.1-0.1-6.3-0.1c-25.3-0.8-39.8-0.3-50.1,0.1C-477.1,298.1-477.3,297.8-476.8,297.2L-476.8,297.2z
	 M-363.1,401.6c-12.8-37.7-33.9-66.7-49.3-77.5c-7.1-5-11.6-7.7-21.5-9.5c-20.6-3.9-37.3-10.3-42.3-13.9c-1.1-0.9-0.9-1.3,0.2-1.3
	c1.1,0,2.4,0,3.8,0.1c18,0.6,33.9,2.3,48.4,4.3c-1,6.7,6.9,11.2,15.3,14.7c29,11.9,45.1,33.6,51.9,50.4c6.9-12,17.1-22.9,22.3-29.4
	l-10.3,0c2.4-6.5,7.3-14.9,12.4-22.7l9.4,8.1l-2.4,2.9l-4.5,5.4l6.9-0.6l14.5-1.2C-310.4,333.1-338.7,354.3-363.1,401.6
	L-363.1,401.6z M-280.9,324.5l4.3,5.1l-21.3-1.7l-0.9,1.7l-1,1.9l-0.5-0.9l-0.2-0.5l-1.1-2.2l-11.4,0.9h0l-8.4,0.7l-1.5,0.1l4.3-5.1
	l-26.1-22.5l4.8-1.6l-1.1-13.5l12.3,2.1l2.3-5.9c0,0,7.9,7.7,9,8.7c0.7,0.7,1.4,1,2.1,1c1,0,1.8-0.9,1.6-3.2l-0.1-1
	c-0.4-4.1-1.7-17.4-1.7-17.4l7.2,2.9l8.6-14.1l8.6,14.1l3.3-1.3l3.9-1.6c0,0-1.3,13.3-1.7,17.4c0,0.4-0.1,0.8-0.1,1
	c-0.2,2.2,0.6,3.2,1.6,3.2c0.6,0,1.4-0.4,2.1-1c1-1,9-8.7,9-8.7l2.3,5.9l12.3-2.1l-1.1,13.5l4.8,1.6L-280.9,324.5L-280.9,324.5z"/>
</svg>
