<?xml version="1.0" encoding="utf-8"?>
<!-- Generator: Adobe Illustrator 19.0.0, SVG Export Plug-In . SVG Version: 6.00 Build 0)  -->
<svg version="1.1" id="Layer_1" xmlns="http://www.w3.org/2000/svg" xmlns:xlink="http://www.w3.org/1999/xlink" x="0px" y="0px"
	 viewBox="-583 300 31.8 30" style="enable-background:new -583 300 31.8 30;" xml:space="preserve">
<style type="text/css">
	.st0{fill:#FFFFFF;}
</style>
<title>Miami Marlins logo</title>
<path class="st0" d="M-570.3,322.2c-0.1,0.2-0.3,0.5-0.3,0.6c-0.1,0.1-0.1,0.2-0.1,0.3l0.4,0.4c0,0,0-0.2,0-0.2v-0.1
	c0-0.1,0-0.1,0.1-0.2c0,0,0,0,0,0c0.1-0.1,0.2-0.3,0.3-0.4l-0.2-0.8C-570.2,321.9-570.3,322.1-570.3,322.2"/>
<path class="st0" d="M-570.4,329.2C-570.4,329.2-570.4,329.2-570.4,329.2c-0.3-0.1-1.2-0.6-1.5-3c-0.1-0.4-0.1-0.7-0.1-1.1l0-0.1
	c-0.1-0.8-0.1-1.1-0.1-1.5c0-0.2-0.1-0.6-0.3-1.1c0,0,0,0,0,0l0,0l1.6-5.2l0.3-1.1l0.6,2.7c-0.2,0.1-0.4,0.3-0.5,0.4
	c-0.4,0.3-0.6,0.6-0.8,0.7c-0.2,0.2-0.4,0.3-0.5,0.3l-0.2,0.5c0.3-0.1,0.6-0.3,0.9-0.6c0.4-0.3,0.5-0.4,0.9-0.8
	c0.2-0.2,0.5-0.4,0.7-0.5l-1.1-5l-3,9.7c-0.2,0.5-0.6,2.2-1.6,3.3c-0.3,0.3-1.2,1.3-3.7,1.7c0.5-0.5,1-1.3,1.5-2.5
	c0.2-0.6,2.3-7.3,3.6-11.5c-0.3,0.2-0.6,0.5-0.9,0.8c-1.3,4.1-3.1,9.9-3.3,10.5c-0.1,0.4-0.3,0.7-0.4,0.9c-0.5,1-1.3,1.8-2.2,2.5
	c0.3,0,0.5,0,0.8,0c0.6,0,2.1-0.1,3.5-0.8c0.6-0.3,1.1-0.7,1.6-1.2c0.1-0.1,0.1-0.2,0.2-0.2c1-1.2,1.4-2.7,1.6-3.3l0-0.1l0.1-0.4
	c0.1,0.2,0.1,0.3,0.1,0.6c0,0,0.1,1,0.3,2.5c0.4,3.5,1.9,3.5,2.6,3.7C-569.8,329.6-570.1,329.5-570.4,329.2 M-553.2,307
	c-0.9,0-2.1,0.1-3.5,0.6c-0.5,0.2-1,0.4-1.5,0.7c-1.5,0.9-2.7,2-4.6,4.2l0,0c-1,1.3-2,2.7-3,4l-0.5,0.7l-0.2-0.8l-1.1-5.3
	c-0.2,0-0.4,0-0.6,0l1.6,7.4l0.4-0.5c0.2-0.2,0.5-0.7,0.9-1.2c1-1.3,2-2.7,3-4c1.8-2.2,3-3.3,4.5-4.1c1.7-0.9,3.3-1.2,4.5-1.2
	c-1.2,1.1-2.1,2.7-2.7,4.6l-3.8,12.3c-0.1,0.4-0.2,0.7-0.2,1c-0.1,0.4-0.1,0.8,0,1.2h-3.5l4.2-13.5l-8.6,11.6l-0.9-4.1
	c-0.2,0.2-0.3,0.5-0.5,0.6l1,4.8l6.4-8.6l1-1.3l-3.4,11h5.1c-0.1-0.3-0.1-0.3-0.1-0.4c-0.1-0.3-0.2-0.8-0.1-1.3
	c0-0.3,0.1-0.6,0.2-0.9l3.8-12.3c0.7-2.2,1.7-3.8,3.1-4.9c0.2-0.2,0.4-0.3,0.6-0.4C-551.9,307.1-552.6,307-553.2,307"/>
<path class="st0" d="M-570.1,321.4c0,0,0-0.1,0.1-0.1l0.1-0.1l0.2-0.3l0.1-0.2c0.2-0.2,0.3-0.4,0.5-0.6l0.3-0.3l0,0
	c0.1-0.1,0.2-0.2,0.2-0.3l0-0.1c0.1-0.2,0.3-0.3,0.5-0.5l0,0h0c0.3-0.3,0.5-0.5,0.8-0.6c0,0,0,0-0.1,0c-0.1,0-0.4,0-1,0.5
	c-0.3,0.3-0.7,0.6-1.1,1.1c-0.5,0.6-0.7,0.9-0.9,1.2c-0.1,0.2-0.2,0.3-0.2,0.4c0,0,0,0.5-0.1,0.7c-0.1,0.2-0.3,0.5-0.3,0.6
	c-0.1,0.2-0.1,0.3-0.1,0.4c0,0.1,0,1.6,0,3.3c0,1.7,0.6,2.7,0.6,2.7l0,0c0.3,0.3,0.6,0.4,0.6,0.4c-0.3-0.5-0.8-2-0.8-3.2
	c0-1.2,0-2.2,0-2.9c0-0.1,0-0.3,0-0.4l0,0c0-0.1,0-0.1,0.1-0.2c0,0,0,0,0,0c0.1-0.2,0.3-0.4,0.3-0.6c0.1-0.2,0.1-0.5,0.1-0.8l0,0
	C-570.1,321.5-570.1,321.4-570.1,321.4C-570.1,321.4-570.1,321.4-570.1,321.4z"/>
<path class="st0" d="M-576.6,319.3c-1.9-2.2-2.6-5.3-1.6-8c-0.2,0-0.3,0-0.5,0c-0.3,0.9-0.4,1.8-0.4,2.8c0,0,0,0,0,0l0,0
	c0,0,0,0,0,0l0,0.1c0.1,2.2,1.2,4,2.4,5.2l0,0L-576.6,319.3"/>
<path class="st0" d="M-560.2,305.5l-4.5,0.8L-560.2,305.5c0,0-4.6,1.7-5.6,2.1c-1,0.4-1,1.3-1,1.3l2-0.1c1.5-0.1,2,0.3,2,0.3
	l-3.6,0.4l-1.1,1.1c-2.9,0-9.2,2.3-8.5,7l0.2-0.5l0-0.1l0,0l0.2-0.5c0-0.1,0.1-0.2,0.1-0.3c0.1-0.4,0.2-0.7,0.4-1
	c0.8-1.5,2.4-2.5,3.5-3c1.1-0.5,2.4-0.9,3.5-1c0.2,0,0.4,0,0.6,0l0.1,0l0.2,0l1.2-1.2l4.3-0.5c-0.2-0.2-1-1-2.6-1
	c-0.2,0-0.3,0-0.5,0l-1.3,0.1c0.1-0.3,0.3-0.5,0.5-0.6c1-0.4,6.3-2.3,6.4-2.4l0.4-0.4C-558.9,305.2-560.2,305.5-560.2,305.5z"/>
<path class="st0" d="M-577.7,314.2c0,0.5,0.1,1,0.2,1.4c-0.1-1.7,0.2-3.1,0.8-4.3c-0.2,0-0.3,0-0.5,0
	C-577.5,312.2-577.7,313.2-577.7,314.2 M-569.8,307.2l-0.1,0c-2,0.1-3.9,0.6-5.2,1.6c-0.2,0.2-0.4,0.3-0.6,0.5
	c-0.2,0.2-0.4,0.5-0.6,0.7c0.2,0,0.5-0.1,0.7-0.1C-574.3,308.4-572.2,307.5-569.8,307.2"/>
<path class="st0" d="M-571.4,302.9c0,0.1,0,0.1,0,0.1c0.1,1.6-0.5,2.8-1,3.4c0.9-0.4,1.8-0.6,2.8-0.6
	C-570.1,304.9-570.7,303.9-571.4,302.9"/>
<path class="st0" d="M-568.2,309l0.9-0.1c0.1-0.8,0.5-1,0.5-1C-568,308.3-568.2,309-568.2,309 M-577.2,311.3c0.9,0,1.7,0,2.6,0.1
	l0.1-0.1l0,0c0.2-0.1,0.4-0.3,0.6-0.4c0.1-0.1,0.2-0.1,0.2-0.2l0.1-0.1c-2.2-0.1-5.1,0-7.8,0.9c0.1,0,1.1-0.2,2.7-0.3
	C-578.2,311.3-577.7,311.3-577.2,311.3"/>
<path class="st0" d="M-573.6,310.7L-573.6,310.7c0.6-0.3,1.2-0.6,1.8-0.8c-0.8-0.1-2.3-0.2-4,0c-0.7,0.1-1.3,0.2-2,0.4
	c0.6-1.1,1.5-2.1,2.8-2.9c0.8-0.5,1.2-0.6,2-1.5c0.2-0.2,0.3-0.4,0.4-0.6c0.9-1.8,0.2-2.7,0.7-4.1c1.7,1.8,2.7,3.7,3.2,4.9
	c0.1,0,0.2,0,0.3,0.1c0.3,0.1,0.7,0.2,1.2,0.4c0,0,0.6-0.1,1.4-0.1l1-0.2l4.5-0.8l1.4-0.4l0.4-0.4l-7.4,1.3c-0.4,0-0.9,0-1.3,0.1
	c-0.4-0.2-0.7-0.3-1.1-0.4c0,0-0.1,0-0.1,0c-0.6-1.2-1.6-3-3.2-4.7c-0.2-0.2-0.4-0.4-0.6-0.5c-0.1,0.2-0.2,0.7-0.2,0.7
	c-0.1,0.5-0.2,1.2-0.2,1.9c0,0.5,0,1.3-0.4,2c0,0-0.1,0.1-0.1,0.1c0,0.1-0.1,0.1-0.1,0.2c-0.1,0.1-0.1,0.2-0.2,0.2
	c0,0,0,0.1-0.1,0.1c-0.3,0.3-0.6,0.6-1,0.9l-0.1,0.1c-0.3,0.2-0.9,0.5-1.3,0.9c-1.2,0.8-1.9,1.8-2.5,3c-1,0.3-2,0.7-3.1,1.2l0,0
	C-578.6,310.8-575.7,310.7-573.6,310.7"/>
</svg>
