<?xml version="1.0" encoding="utf-8"?>
<!-- Generator: Adobe Illustrator 19.0.0, SVG Export Plug-In . SVG Version: 6.00 Build 0)  -->
<svg version="1.1" id="Layer_1" xmlns="http://www.w3.org/2000/svg" xmlns:xlink="http://www.w3.org/1999/xlink" x="0px" y="0px"
	 viewBox="-407 75 383.3 480" style="enable-background:new -407 75 383.3 480;" xml:space="preserve">
<style type="text/css">
	.st0{fill:#FFFFFF;}
</style>
<g>
	<path class="st0" d="M-103.9,177.2l-194.2,0c0,0,11.6,16.7,11.6,48.4v24.6h-41.1c-9.9,0-17.9-8-17.9-17.9v-99.8
		c0-9.8,8-17.9,17.9-17.9l133.3,0c10.3,0.1,17,10.3,15.6,20.5c-1.4,9.8-6.5,15.7-6.5,15.7l52.9,0v-22.9c0-29.2-23.7-52.9-52.9-52.9
		h-157.7c-29.2,0-52.9,23.7-52.9,52.9v109.9c0,29.2,23.7,52.9,52.9,52.9h145.5c9.9,0,17.9,8,17.9,17.9v95.2c0,9.8-8,17.8-17.8,17.8
		h-38.7V309.7h-50.4v111.9h-44c-9.9,0-17.8-8-17.8-17.8v-9.5c0-31.6,8.5-38.9,8.5-38.9l-52.9,0v54c0,29.2,23.7,52.9,52.9,52.9h53.3
		v44.4c0,31.7-11.6,48.4-11.6,48.4l194.2,0c38.1,0,69-30.9,69-69V246.1C-34.9,208-65.8,177.2-103.9,177.2L-103.9,177.2z M-85.3,487
		c0,15-12.2,27.2-27.2,27.2h-123.6v-52.1h54c29.2,0,52.9-23.7,52.9-52.9V303c0-29.2-23.7-52.9-52.9-52.9h-54v-32.2h123.6
		c15,0,27.2,12.2,27.2,27.2L-85.3,487L-85.3,487z"/>
</g>
</svg>
