<?xml version="1.0" encoding="utf-8"?>
<!-- Generator: Adobe Illustrator 19.0.0, SVG Export Plug-In . SVG Version: 6.00 Build 0)  -->
<svg version="1.1" id="Layer_1" xmlns="http://www.w3.org/2000/svg" xmlns:xlink="http://www.w3.org/1999/xlink" x="0px" y="0px"
	 viewBox="-425 177.4 348 274.6" style="enable-background:new -425 177.4 348 274.6;" xml:space="preserve">
<style type="text/css">
	.st0{fill:#3EC1CC;}
	.st1{fill:#FFFFFF;}
</style>
<g>
	<title>Arizona Diamondbacks hat dark logo</title>
	<path class="st0" d="M-309.4,387.8l-87.1,54.8l0,0L-309.4,387.8z"/>
	<path class="st1" d="M-256.5,227.7l39.5-17.6l-16.6-24.4l-1.3-1.9l-165.8,261.4l4.3-2.7l87.1-54.8L-326,348l53.1-33.3l-18.4-32.9
		l51.4-24.8L-256.5,227.7L-256.5,227.7z"/>
	<path class="st1" d="M-189.7,409.7l-30.8,42.3H-89l-61.2-273.6l-0.2-1l-89.1,0.1L-413,452h142.8l-20-42.1l39.9-66.9l2.7,10.6
		l-33.4,57.6l50-37.2l33.6,37.2l-13.9-53.9l7.7-12.2L-189.7,409.7L-189.7,409.7z M-230.2,363.8c-3.8,3.1-30.5,25.2-30.5,25.2
		s18.8-32.5,20.3-35.1c-0.6-2.2-3.1-12-3.1-12h33.2c0,0-7.2,11.5-8.6,13.8c0.9,3,10.2,34.2,10.2,34.2S-227.5,367-230.2,363.8
		 M-246,335.7l25.1-42.1h6.1l9.1,42.1H-246L-246,335.7z M-400.7,445.3l165.8-261.4l1.3,1.9l16.6,24.4l-39.5,17.6l16.6,29.3
		l-51.4,24.8l18.4,32.9l-53.1,33.3l16.7,39.7l-87.1,54.8l0,0L-400.7,445.3L-400.7,445.3z M-97.8,445.4h-108.7l24.9-34.1l-27.8-123.9
		h-16L-298.6,410l17.1,35.3l0,0h-108.3l88.6-54.9l-16.4-40.2l53.2-33.5l-17.2-31.9l51.4-24.6l-16.9-29.2l39.1-17.6l-14.7-22.5l0,0
		l-0.9-1.3l-3.6-5.6h71.3"/>
</g>
</svg>
