<?xml version="1.0" encoding="utf-8"?>
<!-- Generator: Adobe Illustrator 19.0.0, SVG Export Plug-In . SVG Version: 6.00 Build 0)  -->
<svg version="1.1" id="Layer_1" xmlns="http://www.w3.org/2000/svg" xmlns:xlink="http://www.w3.org/1999/xlink" x="0px" y="0px"
	 viewBox="-355 -61.2 488.4 750.2" style="enable-background:new -355 -61.2 488.4 750.2;" xml:space="preserve">
<style type="text/css">
	.st0{fill:#FFFFFF;}
</style>
<title>Cleveland Guardians cap on light logo</title>
<path class="st0" d="M-35.9,412.9L-35.9,412.9l0,100.3c-26,9-52.3,16.7-80.1,23.1c-25.9-7.9-50.9-16.4-75-25.8
	c-0.1-130.7,1.4-261.5,3.8-392.2c24.7-10.3,51.8-20.7,75.1-28.4c25.1,7.8,48.5,16.2,72.5,25.3c1,23.7,0.5,58.9-0.1,118.1
	c23.9,4.5,74.9,0.6,131.8-7.1c2.6-19.4,5.8-38.8,9-58.1c11.6-69.8,22.6-138.3,32.3-202.2C83-41.9,28.1-46.4,1-42.5L-9.4-14.6
	c-32.9-16.4-66.5-32-102.7-46.6C-195.4-28.9-271.7,6-349.2,46.1c14.9,73,20.7,130.5,20.7,226.8c0,140.2-9.7,247.5-26.5,317.9
	c78.8,37.5,155.1,69.8,237.8,98.2c78.2-27.1,156.4-56.9,245.5-99.5c-7.7-49.7-23.9-134.4-36.2-187.4C50.6,403.2,8,407.1-35.9,412.9z
	 M-117.7,665.4c-73.7-25.8-142.2-54.3-212.6-87.2c14.9-71.7,23.3-175.1,23.3-305.6c0-89.8-5.2-147.9-18.1-214.5
	c69.8-35.5,138.3-66.5,212.6-95.6C-72.3-20.8-35-3.2,2.1,15.9l14-37.9c23.3-0.6,56.9,2,91.8,6.5C97,55,84.7,130.6,72.4,206.8
	c-36.1,4.5-67.8,7.1-90.4,6.5c0.8-57.4,1.1-90.5-1-113.7c-30.8-12-60.7-23.1-93.9-33c-28.9,9.8-65.5,23.7-96.2,37.1
	c-2.7,140.4-4.3,281.3-4,421.7c30.9,12.7,63.1,23.6,95.7,33.6c36.6-7.7,70.4-18.1,103.4-30.1v-96.6c30.4-3.9,59.5-6.5,88.2-7.9
	c11.6,52.4,24.5,122.8,28.4,152.5C32.2,610.5-42.1,638.9-117.7,665.4z"/>
</svg>
