<?xml version="1.0" encoding="utf-8"?>
<!-- Generator: Adobe Illustrator 19.0.0, SVG Export Plug-In . SVG Version: 6.00 Build 0)  -->
<svg version="1.1" id="Layer_1" xmlns="http://www.w3.org/2000/svg" xmlns:xlink="http://www.w3.org/1999/xlink" x="0px" y="0px"
	 viewBox="-537 227.1 124.7 174.9" style="enable-background:new -537 227.1 124.7 174.9;" xml:space="preserve">
<style type="text/css">
	.st0{fill:#FFFFFF;}
</style>
<title>Chicago White Sox hat dark logo</title>
<g>
	<g>
		<path class="st0" d="M-418.1,349.5v-11.6l-7.3-6.5l-20.1,25l-2.8-4.5c2.4-1.8,5.6-4.2,6-4.4c0.6-0.3,2-1.2,2.8-1.2
			c0.7,0-1-2.9-5.8-2.9v-25.7l2.8-3.1c0,0-3.4,0.5-4.9,0.1c-0.3-0.1-0.9-0.4-1.6-0.7c0.9-1.4,1.7-3.1,2.3-5
			c3.3-10.4,1.1-20-6.7-25.9c-5.5-4.1-28-15.6-28-15.6s-13.6-6.7-15.1-8.2c-1.1-1-3.2-2.7-3.2-7.8c0-3.1,3.4-6.5,4.9-7.1
			c2.4-1.1,3.1-1.7,7.9-1.7c2.7,0,5.2,0.6,5.6,0.7c3,0.3,10,2.6,13.6,7.6c1.4,1.4,1.7,5.5,1.7,5.5l5.7,3.6l12.3-16.1l-6.7-4.5
			c-1.9,2.1-5.5,2.2-7,1.5c-1.5-0.7-13.9-5.3-15.7-5.8c-3.3-1.1-10.6-1.9-14.5-1.3c-3.9,0.6-10.4,1.8-15.4,7.1
			c-5.9,6.3-6,11.3-6,13.9c0,4.2,1.1,9.8,5.8,14.5c6.8,6.8,17.1,11.1,19.5,12.3c4.1,2.3,17.1,9.1,19,10.2c8,4.6,11,9.6,10.2,15.8
			c0,0.3-0.1,0.6-0.2,0.9c-3.5-2-8.4-5.1-10.4-7.1c0,0-1.2,1.3-1.9,2l-5.8,4.4c0.7-2.8,0.8-7.6,0.6-8.1c-0.1-0.6-0.6-5.2-4.6-8.1
			c-2.8-2-8.9-5.7-14.2-8.3c-2.3-1.1-9.7-5.6-13.2-8.6c0,0-6.1-5.7-7-9.2c-1.8-4-1.9-13.4-1-14.4c0,0-2.3,2.6-3.9,7.9
			c-0.8,2.5-1.3,5.9-1.3,8.1c0,3.8,0.7,10.4,4.8,16c1.8,2.5,4.7,5.3,7.7,7.3c3.7,2.4,7.4,3.9,7.7,4.1c1,0.7,10.6,4.8,11.5,5.2
			c0.9,0.4,5.3,2.5,6.2,3c3.3,1.8,5,2.9,6.1,5.7l-9.9,7.4c0,0,0.4,0.8,0.4,2v0.9c-1.3-0.4-2.7-0.8-4.1-1.1
			c-6.5-1.1-10.5-1.1-15.7,0.2c-5.7,1.4-11.8,3.7-17.4,9.4c-6.4,6.4-6.3,10.7-6.3,10.7l6.4-3.8c5.3-3,12.4-4.8,17.4-4.8
			c11.9,0,18,3.4,19.7,5.3v11.5c0,2.3-0.7,2.6-1.2,3c-0.2,0.2-0.4,0.2-1,0.7c0,0,0.9,0.3,1.1,0.5c0.6,0.4,23.2,14.1,23.2,14.1
			l8.8-6.4l4.3,6.9l-12,14.9l-8.3-7.5v14.1l9.4,8.7l16.7-20.9l13.7,21.8l11-8.9v-13.9l-8.9,6.7l-9-14.3l16.2-20.4L-418.1,349.5
			L-418.1,349.5z M-474.5,318.1l5.2-3.8c1.4,1.2,3,2.2,4.7,3.2c-0.1,0.1-0.2,0.2-0.2,0.2s-6,5.1-9.7,5.6L-474.5,318.1L-474.5,318.1z
			 M-465.5,351.2l-9-5.5v-13.7c3.8-0.7,13-5.1,17.8-9.8c0.1,0.9,0,10,0,16.2l-5.5-8.8l-8.4,6v10.7l4.7-3.1l3.5,5.6L-465.5,351.2
			L-465.5,351.2z"/>
	</g>
</g>
</svg>
