<?xml version="1.0" encoding="utf-8"?>
<!-- Generator: Adobe Illustrator 19.0.0, SVG Export Plug-In . SVG Version: 6.00 Build 0)  -->
<svg version="1.1" id="Layer_1" xmlns="http://www.w3.org/2000/svg" xmlns:xlink="http://www.w3.org/1999/xlink" x="0px" y="0px"
	 viewBox="-482 198.4 233.6 233.6" style="enable-background:new -482 198.4 233.6 233.6;" xml:space="preserve">
<style type="text/css">
	.st0{fill:#FFFFFF;}
	.st1{fill:#FFFFFF;stroke:#000000;stroke-width:5;stroke-miterlimit:10;stroke-opacity:0;}
	.st2{fill:none;stroke:#FFFFFF;stroke-width:4;stroke-miterlimit:10;}
	.st3{fill:none;stroke:#FFFFFF;stroke-width:5;stroke-miterlimit:10;}
</style>
<title>Houston Astros hat dark logo</title>
<g>
	<polygon class="st0" points="-408.8,342.4 -412.1,352.5 -408.8,351.3 	"/>
	<polygon class="st0" points="-316.9,353 -321.6,339.1 -321.6,351.3 	"/>
	<polygon class="st0" points="-422.6,281.7 -466.2,281.7 -408.8,323.4 -408.8,286.7 	"/>
	<polygon class="st0" points="-310,373.7 -339.6,373.7 -300.5,402.1 	"/>
	<polygon class="st0" points="-372.7,281.7 -386.5,286.7 -386.5,307.8 -344.7,307.8 -343.9,286.7 -357.7,281.7 -357.7,264.3 
		-346.5,264.3 -365.2,208.3 -383.4,264.3 -372.7,264.3 	"/>
	<polygon class="st1" points="-343.9,351.3 -343.9,330.2 -386.5,330.2 -386.5,351.3 -372.7,356.3 -372.7,361.4 -364.7,355.5 
		-357.7,360.5 -357.7,356.3 	"/>
	<polygon class="st0" points="-321.6,323.8 -264.2,281.7 -307.8,281.7 -321.6,286.7 	"/>
	<polygon class="st0" points="-428.3,402.1 -389.5,373.7 -419,373.7 	"/>
</g>
<polygon class="st2" points="-307.8,373.7 -307.8,356.3 -316.9,353 -321.6,351.3 -321.6,339.1 -321.6,323.8 -321.6,286.7 
	-307.8,281.7 -307.8,264.3 -346.5,264.3 -357.7,264.3 -357.7,281.7 -343.9,286.7 -344.7,307.8 -386.5,307.8 -386.5,286.7 
	-372.7,281.7 -372.7,264.3 -383.4,264.3 -422.6,264.3 -422.6,281.7 -422.6,281.7 -408.8,286.7 -408.8,323.4 -408.8,342.4 
	-408.8,351.3 -412.1,352.5 -422.6,356.3 -422.6,373.7 -419,373.7 -389.5,373.7 -372.7,373.7 -372.7,361.4 -372.7,356.3 
	-386.5,351.3 -386.5,330.2 -343.9,330.2 -343.9,351.3 -357.7,356.3 -357.7,360.5 -357.7,373.7 -339.6,373.7 -310,373.7 "/>
<g>
	<path class="st3" d="M-365.2,206.3c-60.2,0-108.9,48.7-108.9,108.9c0,60.2,48.7,108.9,108.9,108.9c60.1,0,108.9-48.7,108.9-108.9
		C-256.3,255.1-305.1,206.3-365.2,206.3"/>
</g>
</svg>
