<?xml version="1.0" encoding="utf-8"?>
<!-- Generator: Adobe Illustrator 19.0.0, SVG Export Plug-In . SVG Version: 6.00 Build 0)  -->
<svg version="1.1" id="Layer_1" xmlns="http://www.w3.org/2000/svg" xmlns:xlink="http://www.w3.org/1999/xlink" x="0px" y="0px"
	 viewBox="-463 219.7 271.6 191.3" style="enable-background:new -463 219.7 271.6 191.3;" xml:space="preserve">
<style type="text/css">
	.st0{fill:#FFFFFF;}
</style>
<path class="st0" d="M-307.9,254.8c35.1,0,62.8,16.2,71.7,30.3h42.2c-19.6-38.7-70.1-61.9-120.6-61.9c-49.6,0-87.5,28.6-109.3,54.4
	c-21.1,25-30.8,33-34.5,35.5c-1.4,0.9-1.9,1.1-1.9,1.1c18.8,13.8,26,25,37.6,37.3c28.3,30,52.3,56.2,113.3,56.2
	c53.4,0,94.8-26.4,114.2-58.9H-237c-19.5,14.8-43.4,26.8-73.8,26.8c-28.1,0-57.4-11.7-71.6-33.1c-5.5-8.2-8.7-17.9-8.7-28.9
	C-391.1,294.4-367.6,254.8-307.9,254.8"/>
</svg>
