<?xml version="1.0" encoding="utf-8"?>
<!-- Generator: Adobe Illustrator 19.0.0, SVG Export Plug-In . SVG Version: 6.00 Build 0)  -->
<svg version="1.1" id="Layer_1" xmlns="http://www.w3.org/2000/svg" xmlns:xlink="http://www.w3.org/1999/xlink" x="0px" y="0px"
	 viewBox="-515 192.4 168.5 245.6" style="enable-background:new -515 192.4 168.5 245.6;" xml:space="preserve">
<style type="text/css">
	.st0{fill:#FFFFFF;}
</style>
<title>Detroit Tigers logo</title>
<path class="st0" d="M-357.2,356.8V259c0.6-8.4,2.7-11,8.8-16.7c-13.5-5.1-29-20.9-37.4-37.6c-41.8,21.5-88.3,21.5-123.5-9.5
	c-3.5-3.1-7.5-4.6-4.8,1.2c9.9,21.6,30.6,35,53.8,41c-13.4,11.6-21.2,18.4-23,33c-11.4,0.9-23.6,9.2-27.5,17c-4.4,8.8,2.1,9,6.6,6
	c5.7-3.9,13.7-5.4,20.6-5.1l0,11.1c-11.4,0.9-22.7,9.2-26.5,17c-4.4,8.8,2.1,9,6.5,6c5.7-3.9,13.1-6,20-5.7V350
	c0,13.1-6.6,19.7-10.4,23.3c-3.9,3.6-1.7,7.3,3.9,5.1c11.8-4.7,24-15.9,26.8-32.9c4.5,0.6,9.9,0.6,13.7,0l0,4.6
	c0,13.1-6.6,19.7-10.4,23.3c-0.1,0.1-0.1,0.1-0.2,0.2c-12.6,1.1-23.8,5.3-32.7,12.3c-20.3,15.9-23.5,45.7-20.3,52.3
	c0.2,0.4,11.5-36.9,44.9-40.8c19.4-2.3,43.2,3.5,63.5,21.1c12.5-20.9,33.7-32.8,58.5-37C-354.8,371.7-356.9,367.6-357.2,356.8
	 M-384.1,247v29.3c-13.4,4-32.7,3.9-44.7-0.4v-3.8c0-10.4,0.9-23.5,9.4-31.8c8.2-0.9,16.1-2.6,23.4-5.2L-384.1,247L-384.1,247z
	 M-428.8,286.1c12,4.3,31.4,4.5,44.7,0.4V315c-13.4-4-32.7-3.9-44.7,0.4V286.1L-428.8,286.1z M-429.6,240.9
	c-6.3,5.5-11.7,10.6-15.3,16.5c-4.8-1.6-9.2-2.5-13.4-2.8c2.8-5.5,6.7-10.7,11.5-14.7C-441.1,240.7-435.3,241-429.6,240.9
	 M-462.8,336.9v-64.8c0-2.8,0.5-5.9,1.3-8.9c4.7-0.5,9.4-0.1,13.5,1.4c-1,3-1.6,6.3-1.5,10l-0.1,62
	C-453,337.2-458.2,337.3-462.8,336.9 M-411.5,383.7c-13-6.4-25.7-9.7-37.6-10.4c10.7-7.2,20.3-19.9,20.3-36.7v-11
	c12-4.3,31.4-4.5,44.7-0.4v42.4C-392.4,369.9-402.6,375.9-411.5,383.7"/>
</svg>
